<?xml version="1.0" encoding="UTF-8"?>
<svg xmlns="http://www.w3.org/2000/svg" xmlns:xlink="http://www.w3.org/1999/xlink" width="466.953pt" height="98.292pt" viewBox="0 0 466.953 98.292">
<defs>
<g>
<g id="glyph-0-0">
<path d="M 6.9375 -6.390625 C 6.9375 -6.703125 6.875 -6.859375 6.46875 -6.859375 L 5.96875 -6.859375 C 5.59375 -6.859375 5.484375 -6.734375 5.484375 -6.390625 L 5.484375 -4.03125 L 2.359375 -4.03125 L 2.359375 -6.390625 C 2.359375 -6.703125 2.28125 -6.859375 1.875 -6.859375 L 1.375 -6.859375 C 1.015625 -6.859375 0.90625 -6.75 0.90625 -6.390625 L 0.90625 -0.46875 C 0.90625 -0.125 1.015625 0 1.375 0 L 1.875 0 C 2.25 0 2.359375 -0.125 2.359375 -0.46875 L 2.359375 -3.109375 L 5.484375 -3.109375 L 5.484375 -0.46875 C 5.484375 -0.15625 5.5625 0 5.96875 0 L 6.46875 0 C 6.84375 0 6.9375 -0.125 6.9375 -0.46875 Z M 6.9375 -6.390625 "/>
</g>
<g id="glyph-0-1">
<path d="M 4.265625 -2.109375 C 4.484375 -2.109375 4.734375 -2.125 4.734375 -2.578125 C 4.734375 -3.84375 4.140625 -4.703125 2.671875 -4.703125 C 1.09375 -4.703125 0.3125 -3.8125 0.3125 -2.296875 C 0.3125 -0.6875 1.25 0.109375 2.796875 0.109375 C 3.171875 0.109375 3.734375 0.0625 4.390625 -0.265625 C 4.609375 -0.375 4.671875 -0.40625 4.671875 -0.53125 C 4.671875 -0.59375 4.65625 -0.875 4.640625 -0.953125 C 4.59375 -1.265625 4.59375 -1.28125 4.5 -1.28125 C 4.453125 -1.28125 4.4375 -1.28125 4.328125 -1.171875 C 3.75 -0.671875 3.15625 -0.609375 2.84375 -0.609375 C 1.71875 -0.609375 1.609375 -1.484375 1.578125 -2.109375 Z M 1.578125 -2.640625 C 1.609375 -3.25 1.8125 -3.984375 2.671875 -3.984375 C 3.46875 -3.984375 3.609375 -3.40625 3.640625 -2.640625 Z M 1.578125 -2.640625 "/>
</g>
<g id="glyph-0-2">
<path d="M 4.59375 -3.125 C 4.59375 -4.6875 3.078125 -4.703125 2.59375 -4.703125 C 2.125 -4.703125 1.625 -4.65625 0.96875 -4.375 C 0.765625 -4.296875 0.71875 -4.265625 0.71875 -4.15625 C 0.71875 -4.078125 0.765625 -3.515625 0.78125 -3.4375 C 0.796875 -3.375 0.84375 -3.328125 0.90625 -3.328125 C 0.953125 -3.328125 0.984375 -3.359375 1.015625 -3.375 C 1.4375 -3.828125 1.9375 -4.046875 2.546875 -4.046875 C 3.078125 -4.046875 3.25 -3.71875 3.25 -3.140625 L 3.25 -2.796875 C 2.890625 -2.796875 0.3125 -2.765625 0.3125 -1.3125 C 0.3125 -0.625 0.859375 0.109375 1.734375 0.109375 C 2.0625 0.109375 2.8125 0.015625 3.28125 -0.671875 L 3.28125 -0.46875 C 3.28125 -0.15625 3.34375 0 3.75 0 L 4.109375 0 C 4.484375 0 4.59375 -0.125 4.59375 -0.46875 Z M 3.25 -1.515625 C 3.25 -0.609375 2.296875 -0.609375 2.28125 -0.609375 C 1.859375 -0.609375 1.59375 -0.953125 1.59375 -1.328125 C 1.59375 -2.296875 2.96875 -2.375 3.25 -2.390625 Z M 3.25 -1.515625 "/>
</g>
<g id="glyph-0-3">
<path d="M 4.9375 -6.390625 C 4.9375 -6.703125 4.859375 -6.859375 4.453125 -6.859375 L 4.09375 -6.859375 C 3.71875 -6.859375 3.625 -6.734375 3.625 -6.390625 L 3.625 -4.140625 C 3.171875 -4.5625 2.6875 -4.640625 2.375 -4.640625 C 0.359375 -4.640625 0.359375 -2.734375 0.359375 -2.25 C 0.359375 -1.796875 0.359375 0.109375 2.328125 0.109375 C 2.734375 0.109375 3.171875 -0.015625 3.59375 -0.46875 C 3.59375 -0.09375 3.734375 0 4.0625 0 L 4.453125 0 C 4.84375 0 4.9375 -0.125 4.9375 -0.46875 Z M 3.59375 -1.234375 C 3.59375 -1.0625 3.59375 -0.984375 3.296875 -0.78125 C 3.0625 -0.625 2.828125 -0.609375 2.703125 -0.609375 C 1.71875 -0.609375 1.71875 -1.515625 1.71875 -2.25 C 1.71875 -3 1.71875 -3.921875 2.8125 -3.921875 C 3.109375 -3.921875 3.375 -3.828125 3.59375 -3.625 Z M 3.59375 -1.234375 "/>
</g>
<g id="glyph-0-4">
<path d="M 1.921875 -2.28125 C 1.921875 -3.21875 2.703125 -3.59375 3.328125 -3.640625 C 3.5 -3.65625 3.515625 -3.65625 3.515625 -3.90625 L 3.515625 -4.375 C 3.515625 -4.5625 3.515625 -4.640625 3.34375 -4.640625 C 3.0625 -4.640625 2.34375 -4.546875 1.875 -3.46875 L 1.875 -4.109375 C 1.875 -4.4375 1.796875 -4.59375 1.390625 -4.59375 L 1.078125 -4.59375 C 0.71875 -4.59375 0.609375 -4.484375 0.609375 -4.109375 L 0.609375 -0.46875 C 0.609375 -0.125 0.71875 0 1.078125 0 L 1.4375 0 C 1.8125 0 1.921875 -0.125 1.921875 -0.46875 Z M 1.921875 -2.28125 "/>
</g>
<g id="glyph-0-5">
<path d="M 3 -6.46875 C 2.796875 -6.859375 2.5 -6.859375 2.296875 -6.859375 L 1.375 -6.859375 C 1.015625 -6.859375 0.90625 -6.75 0.90625 -6.390625 L 0.90625 -0.46875 C 0.90625 -0.125 1.015625 0 1.375 0 L 1.640625 0 C 2.015625 0 2.109375 -0.125 2.109375 -0.46875 L 2.109375 -5.671875 L 2.125 -5.671875 L 4.84375 -0.390625 C 5.046875 0 5.34375 0 5.546875 0 L 6.46875 0 C 6.84375 0 6.9375 -0.125 6.9375 -0.46875 L 6.9375 -6.390625 C 6.9375 -6.703125 6.875 -6.859375 6.46875 -6.859375 L 6.203125 -6.859375 C 5.828125 -6.859375 5.734375 -6.734375 5.734375 -6.390625 L 5.734375 -1.203125 L 5.71875 -1.203125 Z M 3 -6.46875 "/>
</g>
<g id="glyph-0-6">
<path d="M 5.125 -2.21875 C 5.125 -3.84375 4.328125 -4.703125 2.71875 -4.703125 C 1.0625 -4.703125 0.3125 -3.8125 0.3125 -2.21875 C 0.3125 -0.609375 1.15625 0.109375 2.703125 0.109375 C 4.265625 0.109375 5.125 -0.609375 5.125 -2.21875 Z M 2.71875 -0.65625 C 1.65625 -0.65625 1.65625 -1.546875 1.65625 -2.34375 C 1.65625 -3.109375 1.65625 -3.984375 2.703125 -3.984375 C 3.78125 -3.984375 3.78125 -3.109375 3.78125 -2.34375 C 3.78125 -1.5625 3.78125 -0.65625 2.71875 -0.65625 Z M 2.71875 -0.65625 "/>
</g>
<g id="glyph-0-7">
<path d="M 4.6875 -6.4375 C 4.546875 -6.859375 4.25 -6.859375 4.0625 -6.859375 L 3.1875 -6.859375 C 2.984375 -6.859375 2.703125 -6.859375 2.546875 -6.4375 L 0.46875 -0.46875 C 0.421875 -0.34375 0.421875 -0.3125 0.421875 -0.265625 C 0.421875 0 0.65625 0 0.796875 0 L 1.15625 0 C 1.328125 0 1.640625 0 1.78125 -0.390625 L 2.171875 -1.5 L 4.90625 -1.5 L 5.234375 -0.546875 C 5.359375 -0.203125 5.4375 0 5.90625 0 L 6.4375 0 C 6.578125 0 6.828125 0 6.828125 -0.265625 C 6.828125 -0.3125 6.828125 -0.34375 6.78125 -0.46875 Z M 3.171875 -4.4375 C 3.328125 -4.875 3.453125 -5.25 3.53125 -5.609375 L 3.546875 -5.609375 C 3.59375 -5.375 3.59375 -5.34375 3.671875 -5.125 L 4.609375 -2.34375 L 2.46875 -2.34375 Z M 3.171875 -4.4375 "/>
</g>
<g id="glyph-0-8">
<path d="M 1.375 -6.859375 C 1.015625 -6.859375 0.90625 -6.75 0.90625 -6.390625 L 0.90625 -0.46875 C 0.90625 -0.125 1.015625 0 1.375 0 L 4.078125 0 C 4.8125 0 6.640625 -0.125 6.640625 -1.921875 C 6.640625 -3.3125 5.265625 -3.53125 4.890625 -3.59375 C 5.8125 -3.796875 6.328125 -4.3125 6.328125 -5.078125 C 6.328125 -6.859375 4.21875 -6.859375 3.8125 -6.859375 Z M 2.296875 -3.921875 L 2.296875 -6.015625 L 3.453125 -6.015625 C 3.84375 -6.015625 4.984375 -5.984375 4.984375 -5.046875 C 4.984375 -3.921875 3.6875 -3.921875 3.4375 -3.921875 Z M 2.296875 -0.84375 L 2.296875 -3.21875 L 3.546875 -3.21875 C 3.890625 -3.21875 5.265625 -3.21875 5.265625 -1.9375 C 5.265625 -0.921875 4.203125 -0.84375 3.734375 -0.84375 Z M 2.296875 -0.84375 "/>
</g>
<g id="glyph-0-9">
<path d="M 6.328125 -1.421875 C 6.328125 -1.5 6.265625 -1.53125 6.21875 -1.53125 C 5.984375 -1.53125 5.703125 -0.890625 4.296875 -0.890625 C 2.5625 -0.890625 2.0625 -1.953125 2.0625 -3.4375 C 2.0625 -4.921875 2.59375 -5.984375 4.21875 -5.984375 C 5.109375 -5.984375 5.5625 -5.640625 5.828125 -5.421875 C 5.890625 -5.375 5.921875 -5.328125 6 -5.328125 C 6.03125 -5.328125 6.078125 -5.375 6.09375 -5.421875 L 6.296875 -6.515625 C 6.296875 -6.5625 6.296875 -6.59375 6.21875 -6.625 C 5.625 -6.84375 5.03125 -6.984375 4.25 -6.984375 C 1.84375 -6.984375 0.609375 -5.8125 0.609375 -3.453125 C 0.609375 -1.03125 1.859375 0.09375 4.265625 0.09375 C 5.109375 0.09375 5.625 -0.015625 6.34375 -0.46875 C 6.421875 -0.515625 6.40625 -0.578125 6.40625 -0.578125 Z M 6.328125 -1.421875 "/>
</g>
<g id="glyph-0-10">
<path d="M 2.890625 -5.8125 L 2.890625 -0.46875 C 2.890625 -0.125 3 0 3.375 0 L 3.875 0 C 4.25 0 4.359375 -0.125 4.359375 -0.46875 L 4.359375 -5.8125 C 4.78125 -5.8125 5.890625 -5.78125 6.328125 -5.78125 C 6.609375 -5.78125 6.84375 -5.78125 6.84375 -6.25 L 6.84375 -6.328125 C 6.84375 -6.640625 6.78125 -6.8125 6.375 -6.8125 L 0.875 -6.8125 C 0.515625 -6.8125 0.390625 -6.703125 0.390625 -6.328125 L 0.390625 -6.25 C 0.390625 -5.78125 0.640625 -5.78125 0.90625 -5.78125 Z M 2.890625 -5.8125 "/>
</g>
<g id="glyph-0-11">
<path d="M 1.015625 -6.875 C 0.6875 -6.875 0.53125 -6.8125 0.53125 -6.421875 L 0.53125 -5.96875 C 0.53125 -5.640625 0.640625 -5.515625 1 -5.515625 L 1.515625 -5.515625 C 1.984375 -5.515625 1.984375 -5.734375 1.984375 -6.1875 C 1.984375 -6.671875 1.984375 -6.875 1.515625 -6.875 Z M 1.921875 -4.0625 C 1.921875 -4.375 1.84375 -4.53125 1.4375 -4.53125 L 1.078125 -4.53125 C 0.71875 -4.53125 0.609375 -4.421875 0.609375 -4.0625 L 0.609375 -0.46875 C 0.609375 -0.125 0.71875 0 1.078125 0 L 1.4375 0 C 1.8125 0 1.921875 -0.125 1.921875 -0.46875 Z M 1.921875 -4.0625 "/>
</g>
<g id="glyph-0-12">
<path d="M 1.921875 -6.390625 C 1.921875 -6.703125 1.84375 -6.859375 1.4375 -6.859375 L 1.078125 -6.859375 C 0.71875 -6.859375 0.609375 -6.75 0.609375 -6.390625 L 0.609375 -0.46875 C 0.609375 -0.125 0.71875 0 1.078125 0 L 1.4375 0 C 1.8125 0 1.921875 -0.125 1.921875 -0.46875 Z M 1.921875 -6.390625 "/>
</g>
<g id="glyph-1-0">
<path d="M 2.96875 -1.5 C 2.96875 -2.046875 2.59375 -2.1875 2.140625 -2.1875 C 1.609375 -2.1875 1.328125 -1.890625 1.21875 -1.703125 L 1.21875 -2.1875 L 0.40625 -2.140625 L 0.40625 -1.921875 C 0.765625 -1.921875 0.8125 -1.875 0.8125 -1.640625 L 0.8125 -0.421875 C 0.8125 -0.265625 0.8125 -0.21875 0.5 -0.21875 L 0.40625 -0.21875 L 0.40625 0 C 0.625 -0.015625 0.828125 -0.015625 1.046875 -0.015625 C 1.25 -0.015625 1.46875 -0.015625 1.671875 0 L 1.671875 -0.21875 L 1.578125 -0.21875 C 1.265625 -0.21875 1.265625 -0.265625 1.265625 -0.421875 L 1.265625 -1.28125 C 1.265625 -1.84375 1.765625 -2.03125 2.078125 -2.03125 C 2.453125 -2.03125 2.53125 -1.8125 2.53125 -1.5 L 2.53125 -0.421875 C 2.53125 -0.265625 2.53125 -0.21875 2.203125 -0.21875 L 2.125 -0.21875 L 2.125 0 C 2.328125 -0.015625 2.546875 -0.015625 2.75 -0.015625 C 2.96875 -0.015625 3.171875 -0.015625 3.390625 0 L 3.390625 -0.21875 L 3.296875 -0.21875 C 2.96875 -0.21875 2.96875 -0.265625 2.96875 -0.421875 Z M 2.96875 -1.5 "/>
</g>
<g id="glyph-1-1">
<path d="M 2.5625 -1.109375 C 2.671875 -1.109375 2.703125 -1.109375 2.703125 -1.234375 C 2.703125 -1.5625 2.53125 -2.21875 1.609375 -2.21875 C 0.859375 -2.21875 0.328125 -1.671875 0.328125 -1.09375 C 0.328125 -0.453125 0.921875 0.046875 1.671875 0.046875 C 2.46875 0.046875 2.703125 -0.5 2.703125 -0.59375 C 2.703125 -0.671875 2.625 -0.671875 2.609375 -0.671875 C 2.53125 -0.671875 2.515625 -0.65625 2.484375 -0.578125 C 2.359375 -0.25 1.984375 -0.125 1.703125 -0.125 C 1.3125 -0.125 1.078125 -0.34375 1.015625 -0.4375 C 0.8125 -0.671875 0.8125 -0.984375 0.8125 -1.109375 Z M 0.828125 -1.265625 C 0.890625 -1.921875 1.359375 -2.0625 1.59375 -2.0625 C 2.28125 -2.0625 2.328125 -1.40625 2.328125 -1.265625 Z M 0.828125 -1.265625 "/>
</g>
<g id="glyph-1-2">
<path d="M 3.171875 -2.140625 C 3.03125 -2.125 2.890625 -2.109375 2.703125 -2.109375 C 2.53125 -2.109375 2.328125 -2.125 2.15625 -2.140625 L 2.15625 -1.921875 C 2.234375 -1.90625 2.25 -1.828125 2.25 -1.828125 C 2.25 -1.734375 2.1875 -1.6875 2.0625 -1.546875 L 1.8125 -1.3125 C 1.578125 -1.53125 1.328125 -1.78125 1.328125 -1.828125 C 1.328125 -1.90625 1.4375 -1.921875 1.453125 -1.921875 L 1.453125 -2.140625 C 1.25 -2.125 0.859375 -2.109375 0.84375 -2.109375 C 0.640625 -2.109375 0.5 -2.109375 0.28125 -2.140625 L 0.28125 -1.921875 L 0.375 -1.921875 C 0.6875 -1.921875 0.703125 -1.90625 0.96875 -1.640625 L 1.546875 -1.046875 C 1.515625 -1.015625 1.078125 -0.578125 1.015625 -0.515625 C 0.875 -0.390625 0.6875 -0.21875 0.25 -0.21875 L 0.25 0 C 0.40625 -0.015625 0.546875 -0.015625 0.734375 -0.015625 C 0.90625 -0.015625 1.109375 -0.015625 1.28125 0 L 1.28125 -0.21875 C 1.203125 -0.234375 1.1875 -0.28125 1.1875 -0.3125 C 1.1875 -0.390625 1.265625 -0.46875 1.28125 -0.484375 C 1.328125 -0.546875 1.671875 -0.859375 1.6875 -0.890625 C 1.875 -0.734375 2.078125 -0.515625 2.203125 -0.375 C 2.25 -0.328125 2.25 -0.328125 2.25 -0.3125 C 2.25 -0.21875 2.140625 -0.21875 2.125 -0.21875 L 2.125 0 C 2.328125 -0.015625 2.703125 -0.015625 2.734375 -0.015625 C 2.9375 -0.015625 3.078125 -0.015625 3.28125 0 L 3.28125 -0.21875 L 3.1875 -0.21875 C 2.921875 -0.21875 2.859375 -0.25 2.796875 -0.296875 C 2.75 -0.328125 2.171875 -0.921875 1.953125 -1.15625 C 2.5625 -1.78125 2.6875 -1.90625 3.171875 -1.921875 Z M 3.171875 -2.140625 "/>
</g>
<g id="glyph-1-3">
<path d="M 1.21875 -1.921875 L 2.09375 -1.921875 L 2.09375 -2.140625 L 1.21875 -2.140625 L 1.21875 -3.046875 L 1.015625 -3.046875 C 1 -2.578125 0.765625 -2.09375 0.25 -2.078125 L 0.25 -1.921875 L 0.78125 -1.921875 L 0.78125 -0.625 C 0.78125 -0.0625 1.25 0.046875 1.546875 0.046875 C 1.921875 0.046875 2.203125 -0.21875 2.203125 -0.625 L 2.203125 -0.890625 L 1.984375 -0.890625 L 1.984375 -0.640625 C 1.984375 -0.265625 1.765625 -0.125 1.59375 -0.125 C 1.21875 -0.125 1.21875 -0.515625 1.21875 -0.625 Z M 1.21875 -1.921875 "/>
</g>
<g id="glyph-1-4">
<path d="M 1.640625 0.75 L 1.546875 0.75 C 1.234375 0.75 1.234375 0.703125 1.234375 0.546875 L 1.234375 -0.234375 C 1.4375 -0.046875 1.703125 0.046875 1.984375 0.046875 C 2.75 0.046875 3.359375 -0.453125 3.359375 -1.0625 C 3.359375 -1.671875 2.8125 -2.1875 2.078125 -2.1875 C 1.6875 -2.1875 1.375 -2.046875 1.203125 -1.90625 L 1.203125 -2.1875 L 0.375 -2.140625 L 0.375 -1.921875 C 0.734375 -1.921875 0.78125 -1.921875 0.78125 -1.703125 L 0.78125 0.546875 C 0.78125 0.703125 0.78125 0.75 0.46875 0.75 L 0.375 0.75 L 0.375 0.953125 C 0.59375 0.953125 0.796875 0.9375 1.015625 0.9375 C 1.21875 0.9375 1.4375 0.953125 1.640625 0.953125 Z M 1.234375 -1.640625 C 1.4375 -1.953125 1.8125 -2.015625 2.015625 -2.015625 C 2.5 -2.015625 2.859375 -1.5625 2.859375 -1.0625 C 2.859375 -0.53125 2.453125 -0.109375 1.953125 -0.109375 C 1.734375 -0.109375 1.46875 -0.203125 1.296875 -0.421875 C 1.234375 -0.515625 1.234375 -0.515625 1.234375 -0.609375 Z M 1.234375 -1.640625 "/>
</g>
<g id="glyph-1-5">
<path d="M 1.203125 -1.109375 C 1.203125 -1.5625 1.46875 -2.015625 1.9375 -2.03125 C 1.9375 -2.015625 1.875 -1.953125 1.875 -1.84375 C 1.875 -1.671875 2.015625 -1.59375 2.125 -1.59375 C 2.25 -1.59375 2.375 -1.671875 2.375 -1.84375 C 2.375 -2.03125 2.1875 -2.1875 1.9375 -2.1875 C 1.6875 -2.1875 1.359375 -2.0625 1.171875 -1.640625 L 1.171875 -2.1875 L 0.375 -2.140625 L 0.375 -1.921875 C 0.75 -1.921875 0.78125 -1.875 0.78125 -1.640625 L 0.78125 -0.421875 C 0.78125 -0.265625 0.78125 -0.21875 0.46875 -0.21875 L 0.375 -0.21875 L 0.375 0 C 0.578125 -0.015625 0.8125 -0.015625 1.015625 -0.015625 C 1.265625 -0.015625 1.515625 -0.015625 1.71875 0 L 1.71875 -0.21875 L 1.59375 -0.21875 C 1.203125 -0.21875 1.203125 -0.265625 1.203125 -0.421875 Z M 1.203125 -1.109375 "/>
</g>
<g id="glyph-1-6">
<path d="M 2.734375 -1.625 C 2.828125 -1.78125 2.953125 -1.90625 3.265625 -1.921875 L 3.265625 -2.140625 C 3.125 -2.125 3 -2.109375 2.828125 -2.109375 C 2.828125 -2.109375 2.5 -2.125 2.328125 -2.140625 L 2.328125 -1.921875 C 2.453125 -1.90625 2.546875 -1.859375 2.546875 -1.734375 C 2.546875 -1.6875 2.515625 -1.640625 2.515625 -1.640625 L 1.890625 -0.40625 L 1.203125 -1.734375 C 1.203125 -1.75 1.1875 -1.78125 1.1875 -1.8125 C 1.1875 -1.921875 1.359375 -1.921875 1.453125 -1.921875 L 1.453125 -2.140625 C 1.21875 -2.125 0.859375 -2.109375 0.828125 -2.109375 C 0.640625 -2.109375 0.484375 -2.109375 0.28125 -2.140625 L 0.28125 -1.921875 C 0.578125 -1.921875 0.640625 -1.921875 0.71875 -1.765625 L 1.59375 -0.0625 C 1.625 0.015625 1.65625 0.046875 1.765625 0.046875 C 1.875 0.046875 1.90625 0 1.9375 -0.0625 Z M 2.734375 -1.625 "/>
</g>
<g id="glyph-2-0">
<path d="M 1.953125 -3.4375 L 2.375 -3.4375 C 2.484375 -3.4375 2.8125 -3.4375 2.8125 -3.765625 C 2.8125 -4.078125 2.484375 -4.078125 2.375 -4.078125 L 1.921875 -4.078125 L 1.921875 -5.046875 C 1.921875 -5.28125 1.921875 -5.640625 2.5 -5.640625 C 2.78125 -5.640625 2.96875 -5.5625 3.140625 -5.390625 C 3.203125 -5.3125 3.234375 -5.296875 3.28125 -5.296875 C 3.390625 -5.296875 3.390625 -5.390625 3.390625 -5.53125 L 3.390625 -5.9375 C 3.390625 -6.15625 3.390625 -6.15625 3.078125 -6.21875 C 2.828125 -6.28125 2.640625 -6.28125 2.5 -6.28125 C 1.828125 -6.28125 0.765625 -6.125 0.765625 -4.796875 L 0.765625 -4.078125 C 0.578125 -4.078125 0.265625 -4.078125 0.265625 -3.765625 C 0.265625 -3.4375 0.5625 -3.4375 0.765625 -3.4375 L 0.765625 -0.421875 C 0.765625 -0.109375 0.859375 0 1.1875 0 L 1.515625 0 C 1.859375 0 1.953125 -0.109375 1.953125 -0.421875 Z M 1.953125 -3.4375 "/>
</g>
<g id="glyph-2-1">
<path d="M 1.734375 -2.046875 C 1.734375 -2.890625 2.4375 -3.234375 3 -3.28125 C 3.15625 -3.28125 3.171875 -3.28125 3.171875 -3.515625 L 3.171875 -3.9375 C 3.171875 -4.109375 3.171875 -4.171875 3.015625 -4.171875 C 2.765625 -4.171875 2.109375 -4.09375 1.6875 -3.125 L 1.6875 -3.703125 C 1.6875 -3.984375 1.625 -4.125 1.25 -4.125 L 0.96875 -4.125 C 0.65625 -4.125 0.546875 -4.03125 0.546875 -3.703125 L 0.546875 -0.421875 C 0.546875 -0.109375 0.640625 0 0.96875 0 L 1.296875 0 C 1.640625 0 1.734375 -0.109375 1.734375 -0.421875 Z M 1.734375 -2.046875 "/>
</g>
<g id="glyph-2-2">
<path d="M 4.609375 -2 C 4.609375 -3.46875 3.90625 -4.234375 2.453125 -4.234375 C 0.96875 -4.234375 0.28125 -3.4375 0.28125 -2 C 0.28125 -0.546875 1.046875 0.09375 2.4375 0.09375 C 3.84375 0.09375 4.609375 -0.546875 4.609375 -2 Z M 2.453125 -0.59375 C 1.484375 -0.59375 1.484375 -1.390625 1.484375 -2.109375 C 1.484375 -2.796875 1.484375 -3.59375 2.4375 -3.59375 C 3.40625 -3.59375 3.40625 -2.8125 3.40625 -2.109375 C 3.40625 -1.40625 3.40625 -0.59375 2.453125 -0.59375 Z M 2.453125 -0.59375 "/>
</g>
<g id="glyph-2-3">
<path d="M 4.453125 -2.890625 C 4.453125 -3.8125 4.0625 -4.171875 3.15625 -4.171875 C 2.21875 -4.171875 1.8125 -3.5 1.703125 -3.265625 L 1.6875 -3.265625 L 1.6875 -3.703125 C 1.6875 -3.984375 1.625 -4.125 1.265625 -4.125 L 0.96875 -4.125 C 0.640625 -4.125 0.53125 -4.03125 0.53125 -3.703125 L 0.53125 -0.421875 C 0.53125 -0.109375 0.625 0 0.96875 0 L 1.3125 0 C 1.65625 0 1.75 -0.109375 1.75 -0.421875 L 1.75 -2.390625 C 1.75 -3.171875 2.265625 -3.53125 2.71875 -3.53125 C 3.15625 -3.53125 3.234375 -3.328125 3.234375 -2.875 L 3.234375 -0.421875 C 3.234375 -0.140625 3.296875 0 3.671875 0 L 4.03125 0 C 4.359375 0 4.453125 -0.109375 4.453125 -0.421875 Z M 4.453125 -2.890625 "/>
</g>
<g id="glyph-2-4">
<path d="M 1.9375 -3.4375 L 2.734375 -3.4375 C 2.84375 -3.4375 3.15625 -3.4375 3.15625 -3.765625 C 3.15625 -4.078125 2.84375 -4.078125 2.734375 -4.078125 L 1.9375 -4.078125 L 1.9375 -4.8125 C 1.9375 -5.109375 1.875 -5.25 1.515625 -5.25 L 1.234375 -5.25 C 0.921875 -5.25 0.8125 -5.140625 0.8125 -4.8125 L 0.8125 -4.078125 L 0.609375 -4.078125 C 0.5 -4.078125 0.171875 -4.078125 0.171875 -3.765625 C 0.171875 -3.4375 0.5 -3.4375 0.609375 -3.4375 L 0.78125 -3.4375 L 0.78125 -1.1875 C 0.78125 -0.28125 1.109375 0.09375 1.71875 0.09375 C 1.796875 0.09375 2.1875 0.09375 2.65625 -0.046875 C 2.8125 -0.09375 3.328125 -0.25 3.328125 -0.421875 C 3.328125 -0.453125 3.296875 -0.5 3.25 -0.6875 C 3.203125 -0.875 3.1875 -0.921875 3.109375 -0.921875 C 3.0625 -0.921875 3.0625 -0.921875 3 -0.859375 C 2.90625 -0.796875 2.65625 -0.59375 2.28125 -0.59375 C 2.078125 -0.59375 1.9375 -0.75 1.9375 -1.34375 Z M 1.9375 -3.4375 "/>
</g>
<g id="glyph-2-5">
<path d="M 3.84375 -1.90625 C 4.046875 -1.90625 4.265625 -1.921875 4.265625 -2.3125 C 4.265625 -3.46875 3.734375 -4.234375 2.40625 -4.234375 C 0.984375 -4.234375 0.28125 -3.421875 0.28125 -2.078125 C 0.28125 -0.609375 1.125 0.09375 2.515625 0.09375 C 2.859375 0.09375 3.359375 0.046875 3.953125 -0.234375 C 4.15625 -0.34375 4.21875 -0.359375 4.21875 -0.46875 C 4.21875 -0.53125 4.1875 -0.796875 4.171875 -0.859375 C 4.140625 -1.140625 4.125 -1.15625 4.046875 -1.15625 C 4.015625 -1.15625 4 -1.15625 3.90625 -1.0625 C 3.375 -0.609375 2.84375 -0.546875 2.5625 -0.546875 C 1.546875 -0.546875 1.4375 -1.34375 1.421875 -1.90625 Z M 1.421875 -2.375 C 1.453125 -2.921875 1.625 -3.59375 2.40625 -3.59375 C 3.125 -3.59375 3.25 -3.078125 3.28125 -2.375 Z M 1.421875 -2.375 "/>
</g>
<g id="glyph-2-6">
<path d="M 4.125 -2.8125 C 4.125 -4.21875 2.78125 -4.234375 2.328125 -4.234375 C 1.921875 -4.234375 1.46875 -4.1875 0.875 -3.953125 C 0.6875 -3.859375 0.640625 -3.84375 0.640625 -3.734375 C 0.640625 -3.671875 0.6875 -3.15625 0.703125 -3.09375 C 0.71875 -3.03125 0.75 -3 0.8125 -3 C 0.859375 -3 0.890625 -3.015625 0.921875 -3.046875 C 1.296875 -3.453125 1.75 -3.640625 2.296875 -3.640625 C 2.78125 -3.640625 2.921875 -3.34375 2.921875 -2.828125 L 2.921875 -2.515625 C 2.609375 -2.515625 0.28125 -2.5 0.28125 -1.1875 C 0.28125 -0.5625 0.78125 0.09375 1.5625 0.09375 C 1.859375 0.09375 2.53125 0.015625 2.953125 -0.609375 L 2.953125 -0.421875 C 2.953125 -0.140625 3.015625 0 3.375 0 L 3.703125 0 C 4.046875 0 4.125 -0.109375 4.125 -0.421875 Z M 2.921875 -1.375 C 2.921875 -0.546875 2.078125 -0.546875 2.046875 -0.546875 C 1.671875 -0.546875 1.4375 -0.859375 1.4375 -1.203125 C 1.4375 -2.078125 2.671875 -2.140625 2.921875 -2.140625 Z M 2.921875 -1.375 "/>
</g>
</g>
</defs>
<path fill-rule="nonzero" fill="rgb(97.499084%, 89.99939%, 92.498779%)" fill-opacity="1" stroke-width="0.79701" stroke-linecap="butt" stroke-linejoin="miter" stroke="rgb(59.999084%, 0%, 19.999695%)" stroke-opacity="1" stroke-miterlimit="10" d="M -19.634686 -14.172892 L 19.634429 -14.172892 L 19.634429 14.174365 L -19.634686 14.174365 Z M -19.634686 -14.172892 " transform="matrix(0.992848, 0, 0, -0.992848, 31.427862, 73.033935)"/>
<g fill="rgb(0%, 0%, 0%)" fill-opacity="1">
<use xlink:href="#glyph-0-0" x="15.230532" y="76.468197"/>
<use xlink:href="#glyph-0-1" x="23.089211" y="76.468197"/>
<use xlink:href="#glyph-0-2" x="28.144681" y="76.468197"/>
<use xlink:href="#glyph-0-3" x="33.337641" y="76.468197"/>
<use xlink:href="#glyph-0-1" x="38.887679" y="76.468197"/>
<use xlink:href="#glyph-0-4" x="43.943149" y="76.468197"/>
</g>
<path fill-rule="nonzero" fill="rgb(100%, 100%, 100%)" fill-opacity="1" d="M 105.480469 87.105469 L 93.929688 87.105469 L 93.929688 58.960938 L 105.480469 58.960938 Z M 105.480469 87.105469 "/>
<path fill-rule="nonzero" fill="rgb(100%, 100%, 100%)" fill-opacity="1" d="M 147.953125 87.105469 L 105.480469 87.105469 L 105.480469 58.960938 L 147.953125 58.960938 Z M 147.953125 87.105469 "/>
<path fill-rule="nonzero" fill="rgb(100%, 100%, 100%)" fill-opacity="1" d="M 159.503906 87.105469 L 147.953125 87.105469 L 147.953125 58.960938 L 159.503906 58.960938 Z M 159.503906 87.105469 "/>
<path fill-rule="nonzero" fill="rgb(100%, 100%, 100%)" fill-opacity="1" stroke-width="0.79701" stroke-linecap="butt" stroke-linejoin="miter" stroke="rgb(0%, 0%, 0%)" stroke-opacity="1" stroke-miterlimit="10" d="M 62.952028 -14.172892 L 128.99858 -14.172892 L 128.99858 14.174365 L 62.952028 14.174365 Z M 74.58601 14.174365 L 74.58601 -14.172892 M 117.364598 14.174365 L 117.364598 -14.172892 " transform="matrix(0.992848, 0, 0, -0.992848, 31.427862, 73.033935)"/>
<g fill="rgb(0%, 0%, 0%)" fill-opacity="1">
<use xlink:href="#glyph-0-5" x="109.170877" y="76.468197"/>
<use xlink:href="#glyph-0-6" x="117.029556" y="76.468197"/>
</g>
<g fill="rgb(0%, 0%, 0%)" fill-opacity="1">
<use xlink:href="#glyph-0-3" x="122.776432" y="76.468197"/>
<use xlink:href="#glyph-0-1" x="128.32647" y="76.468197"/>
</g>
<g fill="rgb(0%, 0%, 0%)" fill-opacity="1">
<use xlink:href="#glyph-0-7" x="137.002175" y="76.468197"/>
</g>
<path fill-rule="nonzero" fill="rgb(100%, 100%, 100%)" fill-opacity="1" d="M 214.0625 87.105469 L 202.511719 87.105469 L 202.511719 58.960938 L 214.0625 58.960938 Z M 214.0625 87.105469 "/>
<path fill-rule="nonzero" fill="rgb(100%, 100%, 100%)" fill-opacity="1" d="M 256.535156 87.105469 L 214.0625 87.105469 L 214.0625 58.960938 L 256.535156 58.960938 Z M 256.535156 87.105469 "/>
<path fill-rule="nonzero" fill="rgb(100%, 100%, 100%)" fill-opacity="1" d="M 268.082031 87.105469 L 256.535156 87.105469 L 256.535156 58.960938 L 268.082031 58.960938 Z M 268.082031 87.105469 "/>
<path fill-rule="nonzero" fill="rgb(100%, 100%, 100%)" fill-opacity="1" stroke-width="0.79701" stroke-linecap="butt" stroke-linejoin="miter" stroke="rgb(0%, 0%, 0%)" stroke-opacity="1" stroke-miterlimit="10" d="M 172.316179 -14.172892 L 238.358796 -14.172892 L 238.358796 14.174365 L 172.316179 14.174365 Z M 183.95016 14.174365 L 183.95016 -14.172892 M 226.728748 14.174365 L 226.728748 -14.172892 " transform="matrix(0.992848, 0, 0, -0.992848, 31.427862, 73.033935)"/>
<g fill="rgb(0%, 0%, 0%)" fill-opacity="1">
<use xlink:href="#glyph-0-5" x="217.750773" y="76.468197"/>
<use xlink:href="#glyph-0-6" x="225.609452" y="76.468197"/>
</g>
<g fill="rgb(0%, 0%, 0%)" fill-opacity="1">
<use xlink:href="#glyph-0-3" x="231.346437" y="76.468197"/>
<use xlink:href="#glyph-0-1" x="236.896474" y="76.468197"/>
</g>
<g fill="rgb(0%, 0%, 0%)" fill-opacity="1">
<use xlink:href="#glyph-0-8" x="245.582071" y="76.468197"/>
</g>
<path fill-rule="nonzero" fill="rgb(100%, 100%, 100%)" fill-opacity="1" d="M 322.640625 87.105469 L 311.089844 87.105469 L 311.089844 58.960938 L 322.640625 58.960938 Z M 322.640625 87.105469 "/>
<path fill-rule="nonzero" fill="rgb(100%, 100%, 100%)" fill-opacity="1" d="M 364.8125 87.105469 L 322.640625 87.105469 L 322.640625 58.960938 L 364.8125 58.960938 Z M 364.8125 87.105469 "/>
<path fill-rule="nonzero" fill="rgb(100%, 100%, 100%)" fill-opacity="1" d="M 376.363281 87.105469 L 364.8125 87.105469 L 364.8125 58.960938 L 376.363281 58.960938 Z M 376.363281 87.105469 "/>
<path fill-rule="nonzero" fill="rgb(100%, 100%, 100%)" fill-opacity="1" stroke-width="0.79701" stroke-linecap="butt" stroke-linejoin="miter" stroke="rgb(0%, 0%, 0%)" stroke-opacity="1" stroke-miterlimit="10" d="M 281.676395 -14.172892 L 347.419999 -14.172892 L 347.419999 14.174365 L 281.676395 14.174365 Z M 293.310377 14.174365 L 293.310377 -14.172892 M 335.786017 14.174365 L 335.786017 -14.172892 " transform="matrix(0.992848, 0, 0, -0.992848, 31.427862, 73.033935)"/>
<g fill="rgb(0%, 0%, 0%)" fill-opacity="1">
<use xlink:href="#glyph-0-5" x="326.329676" y="76.468197"/>
<use xlink:href="#glyph-0-6" x="334.188355" y="76.468197"/>
</g>
<g fill="rgb(0%, 0%, 0%)" fill-opacity="1">
<use xlink:href="#glyph-0-3" x="339.935231" y="76.468197"/>
<use xlink:href="#glyph-0-1" x="345.485269" y="76.468197"/>
</g>
<g fill="rgb(0%, 0%, 0%)" fill-opacity="1">
<use xlink:href="#glyph-0-9" x="354.160974" y="76.468197"/>
</g>
<path fill-rule="nonzero" fill="rgb(97.499084%, 89.99939%, 92.498779%)" fill-opacity="1" stroke-width="0.79701" stroke-linecap="butt" stroke-linejoin="miter" stroke="rgb(59.999084%, 0%, 19.999695%)" stroke-opacity="1" stroke-miterlimit="10" d="M 390.737598 -14.172892 L 426.603468 -14.172892 L 426.603468 14.174365 L 390.737598 14.174365 Z M 390.737598 -14.172892 " transform="matrix(0.992848, 0, 0, -0.992848, 31.427862, 73.033935)"/>
<g fill="rgb(0%, 0%, 0%)" fill-opacity="1">
<use xlink:href="#glyph-0-10" x="422.6608" y="76.468197"/>
</g>
<g fill="rgb(0%, 0%, 0%)" fill-opacity="1">
<use xlink:href="#glyph-0-4" x="429.004124" y="76.468197"/>
<use xlink:href="#glyph-0-2" x="432.685686" y="76.468197"/>
<use xlink:href="#glyph-0-11" x="437.878646" y="76.468197"/>
<use xlink:href="#glyph-0-12" x="440.406875" y="76.468197"/>
<use xlink:href="#glyph-0-1" x="442.935105" y="76.468197"/>
<use xlink:href="#glyph-0-4" x="447.990575" y="76.468197"/>
</g>
<path fill-rule="nonzero" fill="rgb(0%, 0%, 0%)" fill-opacity="1" d="M 98.710938 75.230469 C 98.710938 74.414062 98.046875 73.75 97.226562 73.75 C 96.40625 73.75 95.742188 74.414062 95.742188 75.230469 C 95.742188 76.050781 96.40625 76.714844 97.226562 76.714844 C 98.046875 76.714844 98.710938 76.050781 98.710938 75.230469 Z M 98.710938 75.230469 "/>
<path fill-rule="nonzero" fill="rgb(0%, 0%, 0%)" fill-opacity="1" d="M 153.128906 75.230469 C 153.128906 74.414062 152.464844 73.75 151.644531 73.75 C 150.824219 73.75 150.160156 74.414062 150.160156 75.230469 C 150.160156 76.050781 150.824219 76.714844 151.644531 76.714844 C 152.464844 76.714844 153.128906 76.050781 153.128906 75.230469 Z M 153.128906 75.230469 "/>
<path fill-rule="nonzero" fill="rgb(0%, 0%, 0%)" fill-opacity="1" d="M 207.289062 75.230469 C 207.289062 74.414062 206.625 73.75 205.808594 73.75 C 204.988281 73.75 204.324219 74.414062 204.324219 75.230469 C 204.324219 76.050781 204.988281 76.714844 205.808594 76.714844 C 206.625 76.714844 207.289062 76.050781 207.289062 75.230469 Z M 207.289062 75.230469 "/>
<path fill-rule="nonzero" fill="rgb(0%, 0%, 0%)" fill-opacity="1" d="M 261.710938 75.230469 C 261.710938 74.414062 261.046875 73.75 260.226562 73.75 C 259.40625 73.75 258.742188 74.414062 258.742188 75.230469 C 258.742188 76.050781 259.40625 76.714844 260.226562 76.714844 C 261.046875 76.714844 261.710938 76.050781 261.710938 75.230469 Z M 261.710938 75.230469 "/>
<path fill-rule="nonzero" fill="rgb(0%, 0%, 0%)" fill-opacity="1" d="M 315.871094 75.230469 C 315.871094 74.414062 315.207031 73.75 314.386719 73.75 C 313.570312 73.75 312.90625 74.414062 312.90625 75.230469 C 312.90625 76.050781 313.570312 76.714844 314.386719 76.714844 C 315.207031 76.714844 315.871094 76.050781 315.871094 75.230469 Z M 315.871094 75.230469 "/>
<path fill-rule="nonzero" fill="rgb(0%, 0%, 0%)" fill-opacity="1" d="M 369.988281 75.230469 C 369.988281 74.414062 369.324219 73.75 368.503906 73.75 C 367.683594 73.75 367.019531 74.414062 367.019531 75.230469 C 367.019531 76.050781 367.683594 76.714844 368.503906 76.714844 C 369.324219 76.714844 369.988281 76.050781 369.988281 75.230469 Z M 369.988281 75.230469 "/>
<path fill="none" stroke-width="0.79701" stroke-linecap="butt" stroke-linejoin="miter" stroke="rgb(0%, 0%, 100%)" stroke-opacity="1" stroke-miterlimit="10" d="M 20.031802 -0.0012305 C 36.048691 4.291186 46.537766 4.291186 59.175017 0.903678 " transform="matrix(0.992848, 0, 0, -0.992848, 31.427862, 73.033935)"/>
<path fill-rule="nonzero" fill="rgb(0%, 0%, 100%)" fill-opacity="1" stroke-width="0.79701" stroke-linecap="butt" stroke-linejoin="miter" stroke="rgb(0%, 0%, 100%)" stroke-opacity="1" stroke-miterlimit="10" d="M 4.534193 0.00010605 L 1.287745 1.232074 L 2.371615 -0.000898917 L 1.288088 -1.232095 Z M 4.534193 0.00010605 " transform="matrix(0.959022, 0.256939, 0.256939, -0.959022, 88.096893, 71.577277)"/>
<g fill="rgb(0%, 0%, 100%)" fill-opacity="1">
<use xlink:href="#glyph-1-0" x="65.951189" y="66.145552"/>
<use xlink:href="#glyph-1-1" x="69.660447" y="66.145552"/>
<use xlink:href="#glyph-1-2" x="72.682749" y="66.145552"/>
<use xlink:href="#glyph-1-3" x="76.220391" y="66.145552"/>
</g>
<path fill="none" stroke-width="0.79701" stroke-linecap="butt" stroke-linejoin="miter" stroke="rgb(0%, 0%, 100%)" stroke-opacity="1" stroke-miterlimit="10" d="M 121.082593 -2.212356 C 140.062075 3.767912 152.486869 4.310857 168.499823 0.758106 " transform="matrix(0.992848, 0, 0, -0.992848, 31.427862, 73.033935)"/>
<path fill-rule="nonzero" fill="rgb(0%, 0%, 100%)" fill-opacity="1" stroke-width="0.79701" stroke-linecap="butt" stroke-linejoin="miter" stroke="rgb(0%, 0%, 100%)" stroke-opacity="1" stroke-miterlimit="10" d="M 4.535096 0.00107113 L 1.287846 1.231425 L 2.370942 0.000626525 L 1.286041 -1.231468 Z M 4.535096 0.00107113 " transform="matrix(0.969229, 0.214991, 0.214991, -0.969229, 196.619849, 71.815094)"/>
<g fill="rgb(0%, 0%, 100%)" fill-opacity="1">
<use xlink:href="#glyph-1-0" x="170.237016" y="66.609212"/>
<use xlink:href="#glyph-1-1" x="173.946273" y="66.609212"/>
<use xlink:href="#glyph-1-2" x="176.968576" y="66.609212"/>
<use xlink:href="#glyph-1-3" x="180.506218" y="66.609212"/>
</g>
<path fill="none" stroke-width="0.79701" stroke-linecap="butt" stroke-linejoin="miter" stroke="rgb(0%, 0%, 100%)" stroke-opacity="1" stroke-miterlimit="10" d="M 230.446744 -2.212356 C 249.426226 3.767912 261.85102 4.310857 277.863974 0.758106 " transform="matrix(0.992848, 0, 0, -0.992848, 31.427862, 73.033935)"/>
<path fill-rule="nonzero" fill="rgb(0%, 0%, 100%)" fill-opacity="1" stroke-width="0.79701" stroke-linecap="butt" stroke-linejoin="miter" stroke="rgb(0%, 0%, 100%)" stroke-opacity="1" stroke-miterlimit="10" d="M 4.532447 0.000483416 L 1.285197 1.230837 L 2.368292 0.0000388147 L 1.287233 -1.231204 Z M 4.532447 0.000483416 " transform="matrix(0.969229, 0.214991, 0.214991, -0.969229, 305.200669, 71.815094)"/>
<g fill="rgb(0%, 0%, 100%)" fill-opacity="1">
<use xlink:href="#glyph-1-0" x="278.815919" y="66.609212"/>
<use xlink:href="#glyph-1-1" x="282.525176" y="66.609212"/>
<use xlink:href="#glyph-1-2" x="285.547479" y="66.609212"/>
<use xlink:href="#glyph-1-3" x="289.085121" y="66.609212"/>
</g>
<path fill="none" stroke-width="0.79701" stroke-linecap="butt" stroke-linejoin="miter" stroke="rgb(0%, 0%, 100%)" stroke-opacity="1" stroke-miterlimit="10" d="M 339.504012 -2.212356 C 358.483494 3.767912 370.908288 4.310857 386.921242 0.758106 " transform="matrix(0.992848, 0, 0, -0.992848, 31.427862, 73.033935)"/>
<path fill-rule="nonzero" fill="rgb(0%, 0%, 100%)" fill-opacity="1" stroke-width="0.79701" stroke-linecap="butt" stroke-linejoin="miter" stroke="rgb(0%, 0%, 100%)" stroke-opacity="1" stroke-miterlimit="10" d="M 4.535056 0.00106227 L 1.287806 1.231416 L 2.370902 0.000617665 L 1.286001 -1.231477 Z M 4.535056 0.00106227 " transform="matrix(0.969229, 0.214991, 0.214991, -0.969229, 413.479265, 71.815094)"/>
<g fill="rgb(0%, 0%, 100%)" fill-opacity="1">
<use xlink:href="#glyph-1-0" x="387.092996" y="66.609212"/>
<use xlink:href="#glyph-1-1" x="390.802253" y="66.609212"/>
<use xlink:href="#glyph-1-2" x="393.824556" y="66.609212"/>
<use xlink:href="#glyph-1-3" x="397.362198" y="66.609212"/>
</g>
<path fill="none" stroke-width="0.79701" stroke-linecap="butt" stroke-linejoin="miter" stroke="rgb(79.998779%, 0%, 0%)" stroke-opacity="1" stroke-miterlimit="10" d="M 390.33629 -0.0012305 C 374.319401 -4.289712 363.834261 -4.289712 351.19701 -0.906139 " transform="matrix(0.992848, 0, 0, -0.992848, 31.427862, 73.033935)"/>
<path fill-rule="nonzero" fill="rgb(79.998779%, 0%, 0%)" fill-opacity="1" stroke-width="0.79701" stroke-linecap="butt" stroke-linejoin="miter" stroke="rgb(79.998779%, 0%, 0%)" stroke-opacity="1" stroke-miterlimit="10" d="M 4.533564 -0.001588 L 1.287115 1.23038 L 2.369967 0.0012074 L 1.28644 -1.229989 Z M 4.533564 -0.001588 " transform="matrix(-0.959022, -0.256939, -0.256939, 0.959022, 382.195036, 74.490592)"/>
<g fill="rgb(79.998779%, 0%, 0%)" fill-opacity="1">
<use xlink:href="#glyph-1-4" x="391.387066" y="82.050984"/>
<use xlink:href="#glyph-1-5" x="395.096323" y="82.050984"/>
<use xlink:href="#glyph-1-1" x="397.775396" y="82.050984"/>
<use xlink:href="#glyph-1-6" x="400.797698" y="82.050984"/>
</g>
<path fill="none" stroke-width="0.79701" stroke-linecap="butt" stroke-linejoin="miter" stroke="rgb(79.998779%, 0%, 0%)" stroke-opacity="1" stroke-miterlimit="10" d="M 284.997017 -2.212356 C 267.308014 -6.056252 256.000586 -5.517241 242.092529 -1.067449 " transform="matrix(0.992848, 0, 0, -0.992848, 31.427862, 73.033935)"/>
<path fill-rule="nonzero" fill="rgb(79.998779%, 0%, 0%)" fill-opacity="1" stroke-width="0.79701" stroke-linecap="butt" stroke-linejoin="miter" stroke="rgb(79.998779%, 0%, 0%)" stroke-opacity="1" stroke-miterlimit="10" d="M 4.535646 0.00216567 L 1.287985 1.231099 L 2.371774 -0.000215181 L 1.286745 -1.231362 Z M 4.535646 0.00216567 " transform="matrix(-0.945599, -0.302511, -0.302511, 0.945599, 273.840338, 74.748941)"/>
<g fill="rgb(79.998779%, 0%, 0%)" fill-opacity="1">
<use xlink:href="#glyph-1-4" x="284.788895" y="83.438987"/>
<use xlink:href="#glyph-1-5" x="288.498153" y="83.438987"/>
<use xlink:href="#glyph-1-1" x="291.177225" y="83.438987"/>
<use xlink:href="#glyph-1-6" x="294.199528" y="83.438987"/>
</g>
<path fill="none" stroke-width="0.79701" stroke-linecap="butt" stroke-linejoin="miter" stroke="rgb(79.998779%, 0%, 0%)" stroke-opacity="1" stroke-miterlimit="10" d="M 175.636801 -2.212356 C 157.947798 -6.056252 146.636436 -5.517241 132.728378 -1.067449 " transform="matrix(0.992848, 0, 0, -0.992848, 31.427862, 73.033935)"/>
<path fill-rule="nonzero" fill="rgb(79.998779%, 0%, 0%)" fill-opacity="1" stroke-width="0.79701" stroke-linecap="butt" stroke-linejoin="miter" stroke="rgb(79.998779%, 0%, 0%)" stroke-opacity="1" stroke-miterlimit="10" d="M 4.533052 0.0013357 L 1.285391 1.230269 L 2.36918 -0.00104515 L 1.287898 -1.230993 Z M 4.533052 0.0013357 " transform="matrix(-0.945599, -0.302511, -0.302511, 0.945599, 165.259509, 74.748941)"/>
<g fill="rgb(79.998779%, 0%, 0%)" fill-opacity="1">
<use xlink:href="#glyph-1-4" x="176.209992" y="83.438987"/>
<use xlink:href="#glyph-1-5" x="179.919249" y="83.438987"/>
<use xlink:href="#glyph-1-1" x="182.598322" y="83.438987"/>
<use xlink:href="#glyph-1-6" x="185.620625" y="83.438987"/>
</g>
<path fill="none" stroke-width="0.79701" stroke-linecap="butt" stroke-linejoin="miter" stroke="rgb(79.998779%, 0%, 0%)" stroke-opacity="1" stroke-miterlimit="10" d="M 66.27265 -2.212356 C 48.583647 -6.056252 37.272285 -5.517241 23.364228 -1.067449 " transform="matrix(0.992848, 0, 0, -0.992848, 31.427862, 73.033935)"/>
<path fill-rule="nonzero" fill="rgb(79.998779%, 0%, 0%)" fill-opacity="1" stroke-width="0.79701" stroke-linecap="butt" stroke-linejoin="miter" stroke="rgb(79.998779%, 0%, 0%)" stroke-opacity="1" stroke-miterlimit="10" d="M 4.534215 0.00170764 L 1.286553 1.230641 L 2.370343 -0.000673205 L 1.285314 -1.23182 Z M 4.534215 0.00170764 " transform="matrix(-0.945599, -0.302511, -0.302511, 0.945599, 56.67869, 74.748941)"/>
<g fill="rgb(79.998779%, 0%, 0%)" fill-opacity="1">
<use xlink:href="#glyph-1-4" x="67.630096" y="83.438987"/>
<use xlink:href="#glyph-1-5" x="71.339353" y="83.438987"/>
<use xlink:href="#glyph-1-1" x="74.018426" y="83.438987"/>
<use xlink:href="#glyph-1-6" x="77.040729" y="83.438987"/>
</g>
<path fill-rule="nonzero" fill="rgb(100%, 89.99939%, 79.998779%)" fill-opacity="1" stroke-width="0.3985" stroke-linecap="butt" stroke-linejoin="miter" stroke="rgb(0%, 0%, 0%)" stroke-opacity="1" stroke-miterlimit="10" d="M 108.948944 50.425805 C 108.948944 57.590324 103.141789 63.397479 95.973337 63.397479 C 88.808818 63.397479 82.997729 57.590324 82.997729 50.425805 C 82.997729 43.257353 88.808818 37.450198 95.973337 37.450198 C 103.141789 37.450198 108.948944 43.257353 108.948944 50.425805 Z M 108.948944 50.425805 " transform="matrix(0.992848, 0, 0, -0.992848, 31.427862, 73.033935)"/>
<g fill="rgb(0%, 0%, 0%)" fill-opacity="1">
<use xlink:href="#glyph-2-0" x="116.816803" y="26.062273"/>
<use xlink:href="#glyph-2-1" x="119.808858" y="26.062273"/>
<use xlink:href="#glyph-2-2" x="123.122286" y="26.062273"/>
<use xlink:href="#glyph-2-3" x="128.018538" y="26.062273"/>
<use xlink:href="#glyph-2-4" x="133.013605" y="26.062273"/>
</g>
<path fill="none" stroke-width="0.79701" stroke-linecap="butt" stroke-linejoin="miter" stroke="rgb(0%, 0%, 0%)" stroke-opacity="1" stroke-miterlimit="10" d="M 95.973337 37.249544 L 95.973337 18.069408 " transform="matrix(0.992848, 0, 0, -0.992848, 31.427862, 73.033935)"/>
<path fill-rule="nonzero" fill="rgb(0%, 0%, 0%)" fill-opacity="1" stroke-width="0.79701" stroke-linecap="butt" stroke-linejoin="miter" stroke="rgb(0%, 0%, 0%)" stroke-opacity="1" stroke-miterlimit="10" d="M 4.532484 -0.00141342 L 1.286615 1.23005 L 2.368571 -0.00141342 L 1.286615 -1.228942 Z M 4.532484 -0.00141342 " transform="matrix(0, 0.992848, 0.992848, 0, 126.716247, 52.93743)"/>
<path fill-rule="nonzero" fill="rgb(100%, 89.99939%, 79.998779%)" fill-opacity="1" stroke-width="0.3985" stroke-linecap="butt" stroke-linejoin="miter" stroke="rgb(0%, 0%, 0%)" stroke-opacity="1" stroke-miterlimit="10" d="M 325.174976 48.076977 C 325.174976 53.943147 320.418302 58.703755 314.548197 58.703755 C 308.678092 58.703755 303.921418 53.943147 303.921418 48.076977 C 303.921418 42.206871 308.678092 37.450198 314.548197 37.450198 C 320.418302 37.450198 325.174976 42.206871 325.174976 48.076977 Z M 325.174976 48.076977 " transform="matrix(0.992848, 0, 0, -0.992848, 31.427862, 73.033935)"/>
<g fill="rgb(0%, 0%, 0%)" fill-opacity="1">
<use xlink:href="#glyph-2-1" x="335.932507" y="27.343047"/>
<use xlink:href="#glyph-2-5" x="339.245934" y="27.343047"/>
<use xlink:href="#glyph-2-6" x="343.795888" y="27.343047"/>
</g>
<g fill="rgb(0%, 0%, 0%)" fill-opacity="1">
<use xlink:href="#glyph-2-1" x="348.202514" y="27.343047"/>
</g>
<path fill="none" stroke-width="0.79701" stroke-linecap="butt" stroke-linejoin="miter" stroke="rgb(0%, 0%, 0%)" stroke-opacity="1" stroke-miterlimit="10" d="M 314.548197 37.249544 L 314.548197 18.069408 " transform="matrix(0.992848, 0, 0, -0.992848, 31.427862, 73.033935)"/>
<path fill-rule="nonzero" fill="rgb(0%, 0%, 0%)" fill-opacity="1" stroke-width="0.79701" stroke-linecap="butt" stroke-linejoin="miter" stroke="rgb(0%, 0%, 0%)" stroke-opacity="1" stroke-miterlimit="10" d="M 4.532484 -0.000233244 L 1.286615 1.23123 L 2.368571 -0.000233244 L 1.286615 -1.231696 Z M 4.532484 -0.000233244 " transform="matrix(0, 0.992848, 0.992848, 0, 343.726794, 52.93743)"/>
</svg>
