<?xml version="1.0" encoding="UTF-8"?>
<svg xmlns="http://www.w3.org/2000/svg" xmlns:xlink="http://www.w3.org/1999/xlink" width="282.88pt" height="212.142pt" viewBox="0 0 282.88 212.142">
<defs>
<g>
<g id="glyph-0-0">
<path d="M 18.140625 -15.875 L 20.765625 -15.875 L 20.765625 -16.9375 C 20.046875 -16.890625 17.40625 -16.890625 16.515625 -16.890625 C 15.625 -16.890625 12.984375 -16.890625 12.265625 -16.9375 L 12.265625 -15.875 L 14.890625 -15.875 L 14.890625 -9.328125 L 6.8125 -9.328125 L 6.8125 -15.875 L 9.4375 -15.875 L 9.4375 -16.9375 C 8.71875 -16.890625 6.078125 -16.890625 5.1875 -16.890625 C 4.296875 -16.890625 1.65625 -16.890625 0.9375 -16.9375 L 0.9375 -15.875 L 3.5625 -15.875 L 3.5625 -1.0625 L 0.9375 -1.0625 L 0.9375 0 C 1.65625 -0.046875 4.296875 -0.046875 5.1875 -0.046875 C 6.078125 -0.046875 8.71875 -0.046875 9.4375 0 L 9.4375 -1.0625 L 6.8125 -1.0625 L 6.8125 -8.265625 L 14.890625 -8.265625 L 14.890625 -1.0625 L 12.265625 -1.0625 L 12.265625 0 C 12.984375 -0.046875 15.625 -0.046875 16.515625 -0.046875 C 17.40625 -0.046875 20.046875 -0.046875 20.765625 0 L 20.765625 -1.0625 L 18.140625 -1.0625 Z M 18.140625 -15.875 "/>
</g>
<g id="glyph-0-1">
<path d="M 5.5 -15.375 C 5.5 -16.390625 4.6875 -17.15625 3.734375 -17.15625 C 2.71875 -17.15625 1.953125 -16.3125 1.953125 -15.375 C 1.953125 -14.4375 2.71875 -13.609375 3.734375 -13.609375 C 4.6875 -13.609375 5.5 -14.375 5.5 -15.375 Z M 1.15625 -10.90625 L 1.15625 -9.84375 C 2.609375 -9.84375 2.796875 -9.84375 2.796875 -8.890625 L 2.796875 -1.0625 L 1.09375 -1.0625 L 1.09375 0 C 1.65625 -0.046875 3.359375 -0.046875 4.03125 -0.046875 C 4.71875 -0.046875 6.296875 -0.046875 6.890625 0 L 6.890625 -1.0625 L 5.359375 -1.0625 L 5.359375 -11.109375 Z M 1.15625 -10.90625 "/>
</g>
<g id="glyph-0-2">
<path d="M 3.203125 -4.5 C 4.390625 -3.84375 5.78125 -3.84375 6.140625 -3.84375 C 9.546875 -3.84375 10.90625 -5.75 10.90625 -7.484375 C 10.90625 -8.734375 10.203125 -9.625 9.90625 -9.875 C 10.609375 -10.265625 11.203125 -10.375 11.625 -10.421875 C 11.546875 -10.296875 11.484375 -10.203125 11.484375 -9.875 C 11.484375 -9.359375 11.828125 -8.890625 12.46875 -8.890625 C 13.109375 -8.890625 13.453125 -9.359375 13.453125 -9.875 C 13.453125 -10.46875 13.015625 -11.25 11.96875 -11.25 C 10.90625 -11.25 9.90625 -10.734375 9.375 -10.296875 C 8.375 -10.890625 7.40625 -11.109375 6.140625 -11.109375 C 2.734375 -11.109375 1.375 -9.203125 1.375 -7.484375 C 1.375 -6.71875 1.625 -5.703125 2.671875 -4.859375 C 2.25 -4.390625 1.796875 -3.53125 1.796875 -2.640625 C 1.796875 -1.578125 2.375 -0.671875 2.890625 -0.265625 C 2.296875 -0.125 0.765625 0.4375 0.765625 1.859375 C 0.765625 3.3125 2.375 4.96875 6.90625 4.96875 C 11.015625 4.96875 13.078125 3.625 13.078125 1.78125 C 13.078125 -0.390625 11.65625 -1.109375 11.03125 -1.40625 C 9.84375 -2 8.265625 -2 6.09375 -2 C 5.484375 -2 4.390625 -2 4.265625 -2.03125 C 3.203125 -2.203125 2.90625 -3.140625 2.90625 -3.609375 C 2.90625 -3.796875 2.9375 -4.171875 3.203125 -4.5 Z M 6.140625 -4.640625 C 4 -4.640625 4 -6.34375 4 -7.484375 C 4 -8.609375 4 -10.3125 6.140625 -10.3125 C 8.296875 -10.3125 8.296875 -8.609375 8.296875 -7.484375 C 8.296875 -6.34375 8.296875 -4.640625 6.140625 -4.640625 Z M 7.53125 0.265625 C 9.328125 0.265625 11.0625 0.59375 11.0625 1.875 C 11.0625 2.734375 10.203125 4.171875 6.9375 4.171875 C 3.671875 4.171875 2.796875 2.796875 2.796875 1.859375 C 2.796875 0.265625 4.34375 0.265625 4.71875 0.265625 Z M 7.53125 0.265625 "/>
</g>
<g id="glyph-0-3">
<path d="M 13.109375 -7.546875 C 13.109375 -9.90625 12.09375 -11.109375 9.375 -11.109375 C 6.890625 -11.109375 5.671875 -9.359375 5.328125 -8.609375 L 5.3125 -8.609375 L 5.3125 -17.140625 L 1.03125 -16.9375 L 1.03125 -15.875 C 2.5625 -15.875 2.734375 -15.875 2.734375 -14.90625 L 2.734375 -1.0625 L 1.03125 -1.0625 L 1.03125 0 C 1.609375 -0.046875 3.375 -0.046875 4.078125 -0.046875 C 4.765625 -0.046875 6.5625 -0.046875 7.140625 0 L 7.140625 -1.0625 L 5.4375 -1.0625 L 5.4375 -6.3125 C 5.4375 -8.984375 7.40625 -10.296875 8.984375 -10.296875 C 9.90625 -10.296875 10.421875 -9.703125 10.421875 -7.828125 L 10.421875 -1.0625 L 8.71875 -1.0625 L 8.71875 0 C 9.28125 -0.046875 11.0625 -0.046875 11.75 -0.046875 C 12.4375 -0.046875 14.25 -0.046875 14.8125 0 L 14.8125 -1.0625 L 13.109375 -1.0625 Z M 13.109375 -7.546875 "/>
</g>
<g id="glyph-0-4">
<path d="M 6.265625 -10.859375 C 3.828125 -11.40625 3.75 -13.1875 3.75 -13.53125 C 3.75 -14.78125 4.5625 -16.25 6.96875 -16.25 C 9.359375 -16.25 11.5 -15.078125 12.015625 -11.84375 C 12.09375 -11.328125 12.09375 -11.3125 12.5625 -11.3125 C 13.078125 -11.3125 13.078125 -11.375 13.078125 -11.953125 L 13.078125 -16.59375 C 13.078125 -17.0625 13.078125 -17.234375 12.71875 -17.234375 C 12.546875 -17.234375 12.46875 -17.203125 12.25 -16.953125 L 11.1875 -15.75 C 10.5625 -16.265625 9.328125 -17.234375 6.9375 -17.234375 C 3.40625 -17.234375 1.53125 -15.015625 1.53125 -12.3125 C 1.53125 -10.671875 2.421875 -9.5 2.765625 -9.15625 C 4.046875 -7.875 4.734375 -7.734375 7.3125 -7.15625 C 9.78125 -6.609375 10.078125 -6.5625 10.609375 -6.046875 C 10.9375 -5.734375 11.65625 -5.03125 11.65625 -3.78125 C 11.65625 -2.71875 11.140625 -0.765625 8.375 -0.765625 C 6.203125 -0.765625 2.765625 -1.5 2.5625 -5.109375 C 2.546875 -5.5625 2.546875 -5.625 2.046875 -5.625 C 1.53125 -5.625 1.53125 -5.5625 1.53125 -4.984375 L 1.53125 -0.34375 C 1.53125 0.125 1.53125 0.296875 1.90625 0.296875 C 2.078125 0.296875 2.09375 0.265625 2.34375 0.046875 C 2.609375 -0.21875 2.84375 -0.546875 3.453125 -1.15625 C 4.890625 -0.03125 6.90625 0.296875 8.390625 0.296875 C 12.25 0.296875 13.875 -2.328125 13.875 -4.9375 C 13.875 -7.265625 12.34375 -9.484375 9.65625 -10.09375 Z M 6.265625 -10.859375 "/>
</g>
<g id="glyph-0-5">
<path d="M 11.546875 -2.890625 C 11.546875 -3.1875 11.28125 -3.1875 11.03125 -3.1875 C 10.640625 -3.1875 10.609375 -3.15625 10.5 -2.859375 C 10.3125 -2.390625 9.65625 -0.734375 7.375 -0.734375 C 3.90625 -0.734375 3.90625 -4.5 3.90625 -5.609375 C 3.90625 -7.0625 3.921875 -10.296875 7.15625 -10.296875 C 7.328125 -10.296875 8.78125 -10.25 8.78125 -10.125 C 8.78125 -10.09375 8.765625 -10.078125 8.71875 -10.046875 C 8.640625 -9.96875 8.3125 -9.609375 8.3125 -8.984375 C 8.3125 -7.953125 9.15625 -7.53125 9.78125 -7.53125 C 10.296875 -7.53125 11.234375 -7.84375 11.234375 -9.015625 C 11.234375 -11.03125 8.390625 -11.1875 7.0625 -11.1875 C 2.671875 -11.1875 0.9375 -8.3125 0.9375 -5.484375 C 0.9375 -2.125 3.28125 0.140625 6.90625 0.140625 C 10.78125 0.140625 11.546875 -2.71875 11.546875 -2.890625 Z M 11.546875 -2.890625 "/>
</g>
<g id="glyph-0-6">
<path d="M 13.078125 -5.40625 C 13.078125 -8.734375 10.8125 -11.1875 6.9375 -11.1875 C 2.90625 -11.1875 0.765625 -8.609375 0.765625 -5.40625 C 0.765625 -2.171875 3.03125 0.140625 6.90625 0.140625 C 10.9375 0.140625 13.078125 -2.296875 13.078125 -5.40625 Z M 6.9375 -0.734375 C 3.734375 -0.734375 3.734375 -3.625 3.734375 -5.65625 C 3.734375 -6.8125 3.734375 -8.046875 4.203125 -8.9375 C 4.734375 -9.921875 5.84375 -10.375 6.90625 -10.375 C 8.3125 -10.375 9.203125 -9.703125 9.625 -9.015625 C 10.125 -8.125 10.125 -6.84375 10.125 -5.65625 C 10.125 -3.609375 10.125 -0.734375 6.9375 -0.734375 Z M 6.9375 -0.734375 "/>
</g>
<g id="glyph-0-7">
<path d="M 5.140625 -5.5625 C 5.140625 -6.375 5.3125 -10.296875 8.203125 -10.296875 C 7.84375 -10.015625 7.671875 -9.609375 7.671875 -9.15625 C 7.671875 -8.140625 8.5 -7.734375 9.109375 -7.734375 C 9.734375 -7.734375 10.546875 -8.140625 10.546875 -9.15625 C 10.546875 -10.421875 9.265625 -11.109375 8.078125 -11.109375 C 6.125 -11.109375 5.28125 -9.40625 4.9375 -8.375 L 4.90625 -8.375 L 4.90625 -11.109375 L 0.859375 -10.90625 L 0.859375 -9.84375 C 2.390625 -9.84375 2.5625 -9.84375 2.5625 -8.890625 L 2.5625 -1.0625 L 0.859375 -1.0625 L 0.859375 0 C 1.4375 -0.046875 3.28125 -0.046875 3.96875 -0.046875 C 4.6875 -0.046875 6.6875 -0.046875 7.28125 0 L 7.28125 -1.0625 L 5.140625 -1.0625 Z M 5.140625 -5.5625 "/>
</g>
<g id="glyph-0-8">
<path d="M 11.15625 -5.453125 C 11.734375 -5.453125 11.875 -5.453125 11.875 -6.078125 C 11.875 -6.8125 11.703125 -8.671875 10.5625 -9.828125 C 9.53125 -10.859375 8.140625 -11.1875 6.71875 -11.1875 C 2.859375 -11.1875 0.765625 -8.671875 0.765625 -5.5625 C 0.765625 -2.09375 3.3125 0.140625 7.03125 0.140625 C 10.765625 0.140625 11.875 -2.46875 11.875 -2.890625 C 11.875 -3.265625 11.5 -3.265625 11.359375 -3.265625 C 10.96875 -3.265625 10.9375 -3.1875 10.78125 -2.859375 C 10.140625 -1.265625 8.515625 -0.734375 7.328125 -0.734375 C 3.75 -0.734375 3.734375 -4.078125 3.734375 -5.453125 Z M 3.734375 -6.171875 C 3.78125 -7.1875 3.796875 -8.140625 4.328125 -9.03125 C 4.796875 -9.828125 5.65625 -10.375 6.71875 -10.375 C 9.359375 -10.375 9.578125 -7.40625 9.609375 -6.171875 Z M 3.734375 -6.171875 "/>
</g>
<g id="glyph-0-9">
<path d="M 9.3125 -10.546875 C 9.3125 -11.015625 9.3125 -11.1875 8.9375 -11.1875 C 8.78125 -11.1875 8.734375 -11.1875 8.375 -10.96875 C 8.265625 -10.890625 8 -10.71875 7.875 -10.640625 C 7.1875 -11.03125 6.265625 -11.1875 5.375 -11.1875 C 4.640625 -11.1875 0.9375 -11.1875 0.9375 -7.96875 C 0.9375 -5.375 4 -4.84375 4.765625 -4.71875 C 5.4375 -4.59375 6.25 -4.4375 6.34375 -4.4375 C 7.328125 -4.21875 8.3125 -3.609375 8.3125 -2.5625 C 8.3125 -0.671875 6.078125 -0.671875 5.5625 -0.671875 C 4.296875 -0.671875 2.734375 -1.0625 2.046875 -3.453125 C 1.90625 -3.953125 1.875 -3.96875 1.453125 -3.96875 C 0.9375 -3.96875 0.9375 -3.90625 0.9375 -3.328125 L 0.9375 -0.5 C 0.9375 -0.03125 0.9375 0.140625 1.3125 0.140625 C 1.484375 0.140625 1.53125 0.140625 2.03125 -0.25 L 2.671875 -0.71875 C 3.78125 0.140625 5.109375 0.140625 5.5625 0.140625 C 6.90625 0.140625 10 -0.140625 10 -3.4375 C 10 -4.609375 9.359375 -5.4375 8.859375 -5.875 C 7.84375 -6.71875 7.015625 -6.859375 5.671875 -7.109375 C 4.09375 -7.375 2.609375 -7.65625 2.609375 -8.84375 C 2.609375 -10.4375 4.8125 -10.4375 5.328125 -10.4375 C 8.078125 -10.4375 8.21875 -8.71875 8.265625 -8.09375 C 8.296875 -7.78125 8.5 -7.78125 8.78125 -7.78125 C 9.3125 -7.78125 9.3125 -7.84375 9.3125 -8.421875 Z M 9.3125 -10.546875 "/>
</g>
<g id="glyph-1-0">
<path d="M 7.5625 -4.859375 C 9.484375 -5.375 9.953125 -6.390625 9.953125 -7.171875 C 9.953125 -8.59375 8.453125 -9.796875 5.8125 -9.796875 L 0.546875 -9.796875 L 0.546875 -9.1875 L 2.0625 -9.1875 L 2.0625 -0.609375 L 0.546875 -0.609375 L 0.546875 0 C 0.953125 -0.03125 2.4375 -0.03125 2.953125 -0.03125 C 3.46875 -0.03125 4.96875 -0.03125 5.390625 0 L 5.390625 -0.609375 L 3.875 -0.609375 L 3.875 -4.671875 L 5.5625 -4.671875 C 6.140625 -4.671875 6.59375 -4.5 6.90625 -4.125 C 7.34375 -3.640625 7.34375 -3.328125 7.34375 -2.375 C 7.34375 -1.40625 7.34375 -0.828125 8.0625 -0.34375 C 8.8125 0.15625 9.984375 0.171875 10.296875 0.171875 C 11.75 0.171875 11.921875 -1.109375 11.921875 -1.3125 C 11.921875 -1.5625 11.8125 -1.59375 11.625 -1.59375 C 11.359375 -1.59375 11.34375 -1.5 11.328125 -1.3125 C 11.25 -0.59375 10.8125 -0.296875 10.40625 -0.296875 C 9.5 -0.296875 9.390625 -1.25 9.28125 -2.578125 C 9.203125 -3.328125 9.09375 -4.390625 7.5625 -4.859375 Z M 5.546875 -5.140625 L 3.875 -5.140625 L 3.875 -9.1875 L 5.5625 -9.1875 C 7.890625 -9.1875 7.9375 -8.015625 7.9375 -7.171875 C 7.9375 -6.390625 7.921875 -5.140625 5.546875 -5.140625 Z M 5.546875 -5.140625 "/>
</g>
<g id="glyph-1-1">
<path d="M 6.5625 -4.265625 C 6.5625 -5.578125 5.53125 -6.46875 3.515625 -6.46875 C 2.71875 -6.46875 1.03125 -6.390625 1.03125 -5.203125 C 1.03125 -4.59375 1.484375 -4.34375 1.875 -4.34375 C 2.296875 -4.34375 2.71875 -4.640625 2.71875 -5.1875 C 2.71875 -5.453125 2.609375 -5.71875 2.375 -5.875 C 2.84375 -6 3.1875 -6 3.453125 -6 C 4.421875 -6 5.015625 -5.453125 5.015625 -4.28125 L 5.015625 -3.71875 C 2.75 -3.71875 0.484375 -3.078125 0.484375 -1.5 C 0.484375 -0.203125 2.140625 0.078125 3.125 0.078125 C 4.234375 0.078125 4.921875 -0.515625 5.21875 -1.140625 C 5.21875 -0.609375 5.21875 0 6.65625 0 L 7.390625 0 C 7.6875 0 7.796875 0 7.796875 -0.3125 C 7.796875 -0.609375 7.671875 -0.609375 7.46875 -0.609375 C 6.5625 -0.625 6.5625 -0.859375 6.5625 -1.1875 Z M 5.015625 -1.984375 C 5.015625 -0.640625 3.8125 -0.390625 3.359375 -0.390625 C 2.65625 -0.390625 2.078125 -0.859375 2.078125 -1.515625 C 2.078125 -2.8125 3.609375 -3.25 5.015625 -3.328125 Z M 5.015625 -1.984375 "/>
</g>
<g id="glyph-1-2">
<path d="M 7.578125 -4.375 C 7.578125 -5.734375 7 -6.421875 5.421875 -6.421875 C 4.40625 -6.421875 3.515625 -5.921875 3.03125 -4.859375 L 3.015625 -4.859375 L 3.015625 -6.421875 L 0.59375 -6.3125 L 0.59375 -5.703125 C 1.484375 -5.703125 1.578125 -5.703125 1.578125 -5.140625 L 1.578125 -0.609375 L 0.59375 -0.609375 L 0.59375 0 C 0.921875 -0.03125 1.953125 -0.03125 2.359375 -0.03125 C 2.75 -0.03125 3.796875 -0.03125 4.125 0 L 4.125 -0.609375 L 3.140625 -0.609375 L 3.140625 -3.65625 C 3.140625 -5.203125 4.28125 -5.953125 5.203125 -5.953125 C 5.734375 -5.953125 6.03125 -5.609375 6.03125 -4.53125 L 6.03125 -0.609375 L 5.046875 -0.609375 L 5.046875 0 C 5.375 -0.03125 6.390625 -0.03125 6.796875 -0.03125 C 7.203125 -0.03125 8.234375 -0.03125 8.5625 0 L 8.5625 -0.609375 L 7.578125 -0.609375 Z M 7.578125 -4.375 "/>
</g>
<g id="glyph-1-3">
<path d="M 4.734375 -4 L 6.546875 -5.453125 C 6.71875 -5.59375 6.875 -5.734375 7.859375 -5.734375 L 7.859375 -6.34375 C 7.484375 -6.3125 7.203125 -6.3125 6.671875 -6.3125 C 6.296875 -6.3125 5.5 -6.3125 5.171875 -6.34375 L 5.171875 -5.734375 C 5.34375 -5.734375 5.6875 -5.6875 5.6875 -5.5625 C 5.6875 -5.515625 5.59375 -5.453125 5.5625 -5.421875 L 2.96875 -3.34375 L 2.96875 -9.90625 L 0.5 -9.796875 L 0.5 -9.1875 C 1.390625 -9.1875 1.484375 -9.1875 1.484375 -8.625 L 1.484375 -0.609375 L 0.5 -0.609375 L 0.5 0 C 0.828125 -0.03125 1.8125 -0.03125 2.203125 -0.03125 C 2.578125 -0.03125 3.578125 -0.03125 3.90625 0 L 3.90625 -0.609375 L 2.90625 -0.609375 L 2.90625 -2.53125 C 3.140625 -2.703125 3.359375 -2.890625 3.671875 -3.140625 L 5.390625 -0.90625 C 5.5 -0.796875 5.5 -0.765625 5.5 -0.75 C 5.5 -0.609375 5.21875 -0.609375 5.015625 -0.609375 L 5.015625 0 C 5.359375 -0.03125 6.296875 -0.03125 6.6875 -0.03125 C 7.40625 -0.03125 7.609375 -0.03125 8.21875 0 L 8.21875 -0.609375 C 7.984375 -0.609375 7.703125 -0.609375 7.546875 -0.625 C 7.34375 -0.671875 7.28125 -0.71875 7.125 -0.90625 Z M 4.734375 -4 "/>
</g>
<g id="glyph-1-4">
<path d="M 4.140625 -9.625 C 4 -9.78125 3.984375 -9.796875 3.703125 -9.796875 L 0.546875 -9.796875 L 0.546875 -9.1875 L 2.0625 -9.1875 L 2.0625 -1.046875 C 2.0625 -0.734375 2.046875 -0.71875 1.671875 -0.65625 C 1.40625 -0.625 1.125 -0.609375 0.875 -0.609375 L 0.546875 -0.609375 L 0.546875 0 C 0.875 -0.03125 1.984375 -0.03125 2.390625 -0.03125 C 2.78125 -0.03125 3.90625 -0.03125 4.234375 0 L 4.234375 -0.609375 L 3.90625 -0.609375 C 3.53125 -0.609375 3.5 -0.609375 3.15625 -0.65625 C 2.734375 -0.71875 2.734375 -0.734375 2.734375 -1.046875 L 2.734375 -8.703125 L 9.796875 -0.1875 C 9.953125 -0.015625 9.96875 0 10.15625 0 C 10.5 0 10.5 -0.078125 10.5 -0.421875 L 10.5 -8.75 C 10.5 -9.0625 10.515625 -9.078125 10.875 -9.140625 C 11.140625 -9.171875 11.421875 -9.1875 11.6875 -9.1875 L 12.015625 -9.1875 L 12.015625 -9.796875 C 11.6875 -9.765625 10.5625 -9.765625 10.171875 -9.765625 C 9.765625 -9.765625 8.640625 -9.765625 8.3125 -9.796875 L 8.3125 -9.1875 L 8.640625 -9.1875 C 9.03125 -9.1875 9.046875 -9.1875 9.390625 -9.140625 C 9.8125 -9.078125 9.828125 -9.0625 9.828125 -8.75 L 9.828125 -2.78125 Z M 4.140625 -9.625 "/>
</g>
<g id="glyph-1-5">
<path d="M 12.046875 -4.375 C 12.046875 -5.6875 11.5 -6.421875 9.890625 -6.421875 C 8.453125 -6.421875 7.78125 -5.453125 7.5625 -5 C 7.328125 -6.21875 6.359375 -6.421875 5.4375 -6.421875 C 4.0625 -6.421875 3.328125 -5.546875 3.03125 -4.859375 L 3.015625 -4.859375 L 3.015625 -6.421875 L 0.59375 -6.3125 L 0.59375 -5.703125 C 1.484375 -5.703125 1.578125 -5.703125 1.578125 -5.140625 L 1.578125 -0.609375 L 0.59375 -0.609375 L 0.59375 0 C 0.921875 -0.03125 1.953125 -0.03125 2.359375 -0.03125 C 2.75 -0.03125 3.796875 -0.03125 4.125 0 L 4.125 -0.609375 L 3.140625 -0.609375 L 3.140625 -3.65625 C 3.140625 -5.21875 4.296875 -5.953125 5.203125 -5.953125 C 5.734375 -5.953125 6.046875 -5.640625 6.046875 -4.53125 L 6.046875 -0.609375 L 5.0625 -0.609375 L 5.0625 0 C 5.390625 -0.03125 6.40625 -0.03125 6.8125 -0.03125 C 7.21875 -0.03125 8.25 -0.03125 8.578125 0 L 8.578125 -0.609375 L 7.59375 -0.609375 L 7.59375 -3.65625 C 7.59375 -5.21875 8.75 -5.953125 9.65625 -5.953125 C 10.1875 -5.953125 10.5 -5.640625 10.5 -4.53125 L 10.5 -0.609375 L 9.515625 -0.609375 L 9.515625 0 C 9.84375 -0.03125 10.875 -0.03125 11.265625 -0.03125 C 11.671875 -0.03125 12.703125 -0.03125 13.03125 0 L 13.03125 -0.609375 L 12.046875 -0.609375 Z M 12.046875 -4.375 "/>
</g>
<g id="glyph-1-6">
<path d="M 6.453125 -3.15625 C 6.78125 -3.15625 6.875 -3.15625 6.875 -3.515625 C 6.875 -3.9375 6.765625 -5.015625 6.109375 -5.6875 C 5.515625 -6.28125 4.71875 -6.46875 3.890625 -6.46875 C 1.65625 -6.46875 0.4375 -5.015625 0.4375 -3.21875 C 0.4375 -1.21875 1.90625 0.078125 4.0625 0.078125 C 6.234375 0.078125 6.875 -1.421875 6.875 -1.671875 C 6.875 -1.890625 6.65625 -1.890625 6.5625 -1.890625 C 6.34375 -1.890625 6.328125 -1.84375 6.234375 -1.65625 C 5.875 -0.734375 4.921875 -0.421875 4.234375 -0.421875 C 2.171875 -0.421875 2.15625 -2.359375 2.15625 -3.15625 Z M 2.15625 -3.578125 C 2.1875 -4.15625 2.203125 -4.71875 2.5 -5.234375 C 2.765625 -5.6875 3.265625 -6 3.890625 -6 C 5.40625 -6 5.546875 -4.28125 5.5625 -3.578125 Z M 2.15625 -3.578125 "/>
</g>
<g id="glyph-1-7">
<path d="M 3.625 -6.28125 C 2.21875 -6.59375 2.171875 -7.625 2.171875 -7.828125 C 2.171875 -8.546875 2.640625 -9.390625 4.03125 -9.390625 C 5.40625 -9.390625 6.65625 -8.71875 6.953125 -6.859375 C 7 -6.5625 7 -6.546875 7.265625 -6.546875 C 7.5625 -6.546875 7.5625 -6.578125 7.5625 -6.90625 L 7.5625 -9.59375 C 7.5625 -9.875 7.5625 -9.96875 7.359375 -9.96875 C 7.25 -9.96875 7.21875 -9.953125 7.078125 -9.8125 L 6.46875 -9.109375 C 6.109375 -9.40625 5.390625 -9.96875 4.015625 -9.96875 C 1.96875 -9.96875 0.890625 -8.6875 0.890625 -7.125 C 0.890625 -6.171875 1.40625 -5.5 1.59375 -5.296875 C 2.34375 -4.5625 2.734375 -4.46875 4.234375 -4.140625 C 5.65625 -3.828125 5.828125 -3.796875 6.140625 -3.5 C 6.328125 -3.3125 6.734375 -2.90625 6.734375 -2.1875 C 6.734375 -1.578125 6.4375 -0.4375 4.84375 -0.4375 C 3.578125 -0.4375 1.59375 -0.875 1.484375 -2.953125 C 1.46875 -3.21875 1.46875 -3.25 1.1875 -3.25 C 0.890625 -3.25 0.890625 -3.21875 0.890625 -2.890625 L 0.890625 -0.203125 C 0.890625 0.078125 0.890625 0.171875 1.09375 0.171875 C 1.203125 0.171875 1.21875 0.15625 1.359375 0.03125 C 1.515625 -0.125 1.640625 -0.3125 2 -0.671875 C 2.828125 -0.015625 4 0.171875 4.859375 0.171875 C 7.078125 0.171875 8.03125 -1.34375 8.03125 -2.859375 C 8.03125 -4.203125 7.140625 -5.484375 5.578125 -5.84375 Z M 3.625 -6.28125 "/>
</g>
<g id="glyph-1-8">
<path d="M 6.6875 -1.671875 C 6.6875 -1.84375 6.53125 -1.84375 6.390625 -1.84375 C 6.15625 -1.84375 6.140625 -1.828125 6.0625 -1.65625 C 5.96875 -1.390625 5.578125 -0.421875 4.265625 -0.421875 C 2.25 -0.421875 2.25 -2.59375 2.25 -3.234375 C 2.25 -4.078125 2.265625 -5.953125 4.140625 -5.953125 C 4.234375 -5.953125 5.078125 -5.921875 5.078125 -5.859375 C 5.078125 -5.84375 5.0625 -5.828125 5.046875 -5.8125 C 5 -5.765625 4.8125 -5.5625 4.8125 -5.203125 C 4.8125 -4.59375 5.296875 -4.359375 5.65625 -4.359375 C 5.953125 -4.359375 6.5 -4.546875 6.5 -5.21875 C 6.5 -6.390625 4.859375 -6.46875 4.078125 -6.46875 C 1.546875 -6.46875 0.546875 -4.8125 0.546875 -3.171875 C 0.546875 -1.234375 1.90625 0.078125 4 0.078125 C 6.234375 0.078125 6.6875 -1.578125 6.6875 -1.671875 Z M 6.6875 -1.671875 "/>
</g>
<g id="glyph-1-9">
<path d="M 7.5625 -3.125 C 7.5625 -5.0625 6.25 -6.46875 4.015625 -6.46875 C 1.6875 -6.46875 0.4375 -4.984375 0.4375 -3.125 C 0.4375 -1.25 1.75 0.078125 4 0.078125 C 6.328125 0.078125 7.5625 -1.328125 7.5625 -3.125 Z M 4.015625 -0.421875 C 2.15625 -0.421875 2.15625 -2.09375 2.15625 -3.265625 C 2.15625 -3.9375 2.15625 -4.65625 2.421875 -5.171875 C 2.734375 -5.734375 3.390625 -6 4 -6 C 4.8125 -6 5.328125 -5.609375 5.5625 -5.21875 C 5.859375 -4.703125 5.859375 -3.953125 5.859375 -3.265625 C 5.859375 -2.078125 5.859375 -0.421875 4.015625 -0.421875 Z M 4.015625 -0.421875 "/>
</g>
<g id="glyph-1-10">
<path d="M 2.96875 -3.21875 C 2.96875 -3.6875 3.078125 -5.953125 4.734375 -5.953125 C 4.546875 -5.796875 4.4375 -5.5625 4.4375 -5.296875 C 4.4375 -4.71875 4.90625 -4.46875 5.265625 -4.46875 C 5.625 -4.46875 6.09375 -4.71875 6.09375 -5.296875 C 6.09375 -6.03125 5.359375 -6.421875 4.671875 -6.421875 C 3.546875 -6.421875 3.0625 -5.4375 2.859375 -4.84375 L 2.84375 -4.84375 L 2.84375 -6.421875 L 0.5 -6.3125 L 0.5 -5.703125 C 1.390625 -5.703125 1.484375 -5.703125 1.484375 -5.140625 L 1.484375 -0.609375 L 0.5 -0.609375 L 0.5 0 C 0.828125 -0.03125 1.90625 -0.03125 2.296875 -0.03125 C 2.71875 -0.03125 3.875 -0.03125 4.21875 0 L 4.21875 -0.609375 L 2.96875 -0.609375 Z M 2.96875 -3.21875 "/>
</g>
<g id="glyph-2-0">
<path d="M 2.96875 -6.734375 L 2.765625 -6.734375 C 2.1875 -6.125 1.359375 -6.09375 0.890625 -6.078125 L 0.890625 -5.5 C 1.203125 -5.5 1.6875 -5.53125 2.1875 -5.734375 L 2.1875 -0.578125 L 0.9375 -0.578125 L 0.9375 0 L 4.203125 0 L 4.203125 -0.578125 L 2.96875 -0.578125 Z M 2.96875 -6.734375 "/>
</g>
<g id="glyph-2-1">
<path d="M 3.734375 -6.890625 L 2.875 -6.890625 L 0.28125 0 L 1.015625 0 L 1.78125 -2.03125 L 4.65625 -2.03125 L 5.421875 0 L 6.328125 0 Z M 4.4375 -2.578125 L 1.984375 -2.578125 L 2.625 -4.375 C 2.84375 -4.953125 3.140625 -5.796875 3.21875 -6.171875 C 3.25 -6.03125 3.3125 -5.78125 3.546875 -5.125 Z M 4.4375 -2.578125 "/>
</g>
<g id="glyph-2-2">
<path d="M 1.546875 -6.890625 L 0.796875 -6.890625 L 0.796875 0 L 1.546875 0 Z M 1.546875 -6.890625 "/>
</g>
<g id="glyph-2-3">
<path d="M 1.625 -6.75 L 0.734375 -6.75 L 0.734375 -5.859375 L 1.625 -5.859375 Z M 1.546875 -4.40625 L 0.796875 -4.40625 L 0.796875 0 L 1.546875 0 Z M 1.546875 -4.40625 "/>
</g>
<g id="glyph-2-4">
<path d="M 4.0625 -4.140625 C 3.484375 -4.484375 3.140625 -4.578125 2.546875 -4.578125 C 1.15625 -4.578125 0.359375 -3.375 0.359375 -2.203125 C 0.359375 -0.96875 1.265625 0.109375 2.5 0.109375 C 3.03125 0.109375 3.578125 -0.03125 4.125 -0.390625 L 4.0625 -1.0625 C 3.546875 -0.671875 3.015625 -0.53125 2.515625 -0.53125 C 1.6875 -0.53125 1.125 -1.234375 1.125 -2.21875 C 1.125 -2.984375 1.5 -3.9375 2.546875 -3.9375 C 3.0625 -3.9375 3.40625 -3.859375 3.953125 -3.5 Z M 4.0625 -4.140625 "/>
</g>
<g id="glyph-2-5">
<path d="M 4.109375 -2.171875 C 4.109375 -2.515625 4.09375 -3.25 3.703125 -3.84375 C 3.296875 -4.46875 2.703125 -4.578125 2.34375 -4.578125 C 1.234375 -4.578125 0.34375 -3.515625 0.34375 -2.25 C 0.34375 -0.9375 1.296875 0.109375 2.484375 0.109375 C 3.109375 0.109375 3.6875 -0.125 4.0625 -0.40625 L 4.015625 -1.046875 C 3.390625 -0.53125 2.734375 -0.5 2.5 -0.5 C 1.703125 -0.5 1.078125 -1.203125 1.046875 -2.171875 Z M 1.09375 -2.71875 C 1.25 -3.46875 1.78125 -3.96875 2.34375 -3.96875 C 2.859375 -3.96875 3.40625 -3.625 3.546875 -2.71875 Z M 1.09375 -2.71875 "/>
</g>
<g id="glyph-2-6">
<path d="M 1.515625 -5.875 L 4.125 -5.875 L 4.125 -6.515625 L 0.796875 -6.515625 L 0.796875 -2.84375 L 1.453125 -2.84375 C 1.625 -3.25 2 -3.625 2.5625 -3.625 C 3.03125 -3.625 3.578125 -3.21875 3.578125 -2.03125 C 3.578125 -0.390625 2.359375 -0.390625 2.265625 -0.390625 C 1.609375 -0.390625 1 -0.78125 0.71875 -1.3125 L 0.390625 -0.75 C 0.796875 -0.1875 1.484375 0.21875 2.28125 0.21875 C 3.46875 0.21875 4.453125 -0.765625 4.453125 -2.015625 C 4.453125 -3.25 3.609375 -4.234375 2.578125 -4.234375 C 2.1875 -4.234375 1.8125 -4.09375 1.515625 -3.828125 Z M 1.515625 -5.875 "/>
</g>
<g id="glyph-2-7">
<path d="M 4.53125 -3.234375 C 4.53125 -4.015625 4.5 -4.9375 4.078125 -5.75 C 3.671875 -6.484375 2.984375 -6.734375 2.484375 -6.734375 C 1.890625 -6.734375 1.203125 -6.453125 0.796875 -5.578125 C 0.46875 -4.859375 0.421875 -4.03125 0.421875 -3.234375 C 0.421875 -2.453125 0.453125 -1.71875 0.75 -1 C 1.15625 -0.046875 1.90625 0.21875 2.46875 0.21875 C 3.1875 0.21875 3.8125 -0.1875 4.140625 -0.875 C 4.4375 -1.515625 4.53125 -2.171875 4.53125 -3.234375 Z M 2.484375 -0.390625 C 1.96875 -0.390625 1.5625 -0.765625 1.359375 -1.484375 C 1.203125 -2.046875 1.1875 -2.578125 1.1875 -3.359375 C 1.1875 -3.984375 1.1875 -4.578125 1.359375 -5.125 C 1.421875 -5.3125 1.671875 -6.125 2.46875 -6.125 C 3.25 -6.125 3.5 -5.375 3.578125 -5.1875 C 3.765625 -4.640625 3.765625 -3.96875 3.765625 -3.359375 C 3.765625 -2.703125 3.765625 -2.078125 3.578125 -1.453125 C 3.328125 -0.546875 2.796875 -0.390625 2.484375 -0.390625 Z M 2.484375 -0.390625 "/>
</g>
<g id="glyph-2-8">
<path d="M 1.71875 -1.859375 L 0.5 -0.640625 L 0.5 0 L 4.453125 0 L 4.453125 -0.703125 L 2.65625 -0.703125 C 2.53125 -0.703125 2.40625 -0.6875 2.296875 -0.6875 L 1.203125 -0.6875 C 1.53125 -0.96875 2.28125 -1.71875 2.59375 -2 C 2.78125 -2.1875 3.28125 -2.59375 3.46875 -2.78125 C 3.921875 -3.21875 4.453125 -3.75 4.453125 -4.59375 C 4.453125 -5.734375 3.65625 -6.734375 2.34375 -6.734375 C 1.203125 -6.734375 0.65625 -5.953125 0.421875 -5.09375 C 0.53125 -4.9375 0.578125 -4.875 0.609375 -4.84375 C 0.625 -4.828125 0.71875 -4.6875 0.828125 -4.546875 C 1.015625 -5.3125 1.296875 -6.09375 2.203125 -6.09375 C 3.140625 -6.09375 3.640625 -5.34375 3.640625 -4.578125 C 3.640625 -3.734375 3.078125 -3.171875 2.484375 -2.5625 Z M 1.71875 -1.859375 "/>
</g>
<g id="glyph-2-9">
<path d="M 0.96875 -6.890625 L 0.96875 0 L 3.578125 0 C 5.015625 0 6.046875 -0.890625 6.046875 -1.859375 C 6.046875 -2.734375 5.1875 -3.4375 4.140625 -3.609375 C 5.046875 -3.828125 5.78125 -4.40625 5.78125 -5.15625 C 5.78125 -6.078125 4.71875 -6.890625 3.3125 -6.890625 Z M 1.78125 -3.875 L 1.78125 -6.328125 L 3.03125 -6.328125 C 4.140625 -6.328125 5.015625 -5.796875 5.015625 -5.15625 C 5.015625 -4.546875 4.3125 -3.875 2.9375 -3.875 Z M 1.78125 -0.5625 L 1.78125 -3.28125 L 3.21875 -3.28125 C 4.28125 -3.28125 5.25 -2.671875 5.25 -1.875 C 5.25 -1.125 4.375 -0.5625 3.296875 -0.5625 Z M 1.78125 -0.5625 "/>
</g>
<g id="glyph-2-10">
<path d="M 4.65625 -2.1875 C 4.65625 -3.515625 3.65625 -4.578125 2.484375 -4.578125 C 1.265625 -4.578125 0.296875 -3.484375 0.296875 -2.1875 C 0.296875 -0.875 1.3125 0.109375 2.46875 0.109375 C 3.65625 0.109375 4.65625 -0.890625 4.65625 -2.1875 Z M 2.46875 -0.53125 C 1.78125 -0.53125 1.078125 -1.078125 1.078125 -2.28125 C 1.078125 -3.484375 1.828125 -3.96875 2.46875 -3.96875 C 3.171875 -3.96875 3.875 -3.453125 3.875 -2.28125 C 3.875 -1.109375 3.203125 -0.53125 2.46875 -0.53125 Z M 2.46875 -0.53125 "/>
</g>
<g id="glyph-2-11">
<path d="M 1.5625 -6.890625 L 0.8125 -6.890625 L 0.8125 0 L 1.59375 0 L 1.59375 -0.453125 C 1.828125 -0.234375 2.25 0.109375 2.921875 0.109375 C 3.90625 0.109375 4.765625 -0.890625 4.765625 -2.21875 C 4.765625 -3.4375 4.09375 -4.515625 3.15625 -4.515625 C 2.765625 -4.515625 2.15625 -4.421875 1.5625 -3.921875 Z M 1.59375 -3.328125 C 1.75 -3.5625 2.109375 -3.90625 2.65625 -3.90625 C 3.234375 -3.90625 3.984375 -3.484375 3.984375 -2.21875 C 3.984375 -0.921875 3.15625 -0.5 2.546875 -0.5 C 2.15625 -0.5 1.828125 -0.671875 1.59375 -1.125 Z M 1.59375 -3.328125 "/>
</g>
<g id="glyph-2-12">
<path d="M 0.90625 -5.09375 C 1.203125 -5.796875 1.84375 -6.15625 2.453125 -6.15625 C 2.96875 -6.15625 3.453125 -5.859375 3.453125 -5.21875 C 3.453125 -4.609375 3.046875 -4.03125 2.4375 -3.890625 C 2.375 -3.875 2.359375 -3.875 1.65625 -3.8125 L 1.65625 -3.21875 L 2.359375 -3.21875 C 3.4375 -3.21875 3.65625 -2.296875 3.65625 -1.796875 C 3.65625 -1.015625 3.1875 -0.390625 2.4375 -0.390625 C 1.75 -0.390625 0.96875 -0.734375 0.53125 -1.40625 L 0.421875 -0.8125 C 1.140625 0.125 2.046875 0.21875 2.453125 0.21875 C 3.65625 0.21875 4.53125 -0.75 4.53125 -1.78125 C 4.53125 -2.6875 3.84375 -3.296875 3.171875 -3.515625 C 3.921875 -3.921875 4.265625 -4.59375 4.265625 -5.21875 C 4.265625 -6.078125 3.4375 -6.734375 2.453125 -6.734375 C 1.703125 -6.734375 0.96875 -6.328125 0.5625 -5.640625 Z M 0.90625 -5.09375 "/>
</g>
<g id="glyph-2-13">
<path d="M 5.78125 -1.125 C 5.1875 -0.75 4.859375 -0.53125 3.875 -0.53125 C 2.4375 -0.53125 1.546875 -2.03125 1.546875 -3.453125 C 1.546875 -4.796875 2.375 -6.359375 3.890625 -6.359375 C 4.59375 -6.359375 5.046875 -6.1875 5.59375 -5.84375 L 5.71875 -6.65625 C 5.296875 -6.859375 4.53125 -7 3.90625 -7 C 2.0625 -7 0.65625 -5.453125 0.65625 -3.359375 C 0.65625 -1.796875 1.828125 0.109375 3.90625 0.109375 C 4.8125 0.109375 5.1875 -0.046875 5.828125 -0.453125 Z M 5.78125 -1.125 "/>
</g>
<g id="glyph-2-14">
<path d="M 4.3125 -2.953125 C 4.3125 -3.609375 4.171875 -4.515625 2.953125 -4.515625 C 2.34375 -4.515625 1.859375 -4.203125 1.546875 -3.796875 L 1.546875 -6.890625 L 0.796875 -6.890625 L 0.796875 0 L 1.578125 0 L 1.578125 -2.4375 C 1.578125 -3.078125 1.828125 -3.90625 2.578125 -3.90625 C 3.53125 -3.90625 3.546875 -3.203125 3.546875 -2.890625 L 3.546875 0 L 4.3125 0 Z M 4.3125 -2.953125 "/>
</g>
<g id="glyph-2-15">
<path d="M 3.953125 -2.875 C 3.953125 -3.875 3.234375 -4.578125 2.328125 -4.578125 C 1.671875 -4.578125 1.234375 -4.421875 0.765625 -4.140625 L 0.828125 -3.5 C 1.34375 -3.859375 1.828125 -3.984375 2.328125 -3.984375 C 2.78125 -3.984375 3.1875 -3.59375 3.1875 -2.859375 L 3.1875 -2.4375 C 1.703125 -2.40625 0.4375 -2 0.4375 -1.125 C 0.4375 -0.6875 0.703125 0.109375 1.5625 0.109375 C 1.703125 0.109375 2.640625 0.09375 3.21875 -0.359375 L 3.21875 0 L 3.953125 0 Z M 3.1875 -1.3125 C 3.1875 -1.125 3.1875 -0.875 2.84375 -0.6875 C 2.5625 -0.5 2.1875 -0.5 2.078125 -0.5 C 1.59375 -0.5 1.15625 -0.71875 1.15625 -1.140625 C 1.15625 -1.828125 2.765625 -1.90625 3.1875 -1.921875 Z M 3.1875 -1.3125 "/>
</g>
<g id="glyph-2-16">
<path d="M 1.5625 -2.125 C 1.5625 -3.109375 2.265625 -3.828125 3.25 -3.84375 L 3.25 -4.515625 C 2.359375 -4.5 1.8125 -4.015625 1.515625 -3.5625 L 1.515625 -4.46875 L 0.8125 -4.46875 L 0.8125 0 L 1.5625 0 Z M 1.5625 -2.125 "/>
</g>
<g id="glyph-2-17">
<path d="M 3.6875 -1.703125 L 4.671875 -1.703125 L 4.671875 -2.296875 L 3.6875 -2.296875 L 3.6875 -6.515625 L 2.78125 -6.515625 L 0.28125 -2.296875 L 0.28125 -1.703125 L 2.90625 -1.703125 L 2.90625 0 L 3.6875 0 Z M 1.046875 -2.296875 C 1.5625 -3.15625 2.96875 -5.5 2.96875 -6.078125 L 2.96875 -2.296875 Z M 1.046875 -2.296875 "/>
</g>
<g id="glyph-2-18">
<path d="M 0.953125 -6.890625 L 0.953125 0 L 3.5625 0 C 5.25 0 6.59375 -1.515625 6.59375 -3.390625 C 6.59375 -5.3125 5.265625 -6.890625 3.546875 -6.890625 Z M 1.8125 -0.5625 L 1.8125 -6.328125 L 3.328125 -6.328125 C 4.71875 -6.328125 5.75 -5.125 5.75 -3.390625 C 5.75 -1.703125 4.71875 -0.5625 3.328125 -0.5625 Z M 1.8125 -0.5625 "/>
</g>
<g id="glyph-2-19">
<path d="M 4.421875 -4.40625 L 3.6875 -4.40625 L 2.890625 -2.34375 C 2.6875 -1.796875 2.375 -0.984375 2.296875 -0.53125 C 2.234375 -0.890625 1.96875 -1.5625 1.875 -1.828125 L 0.90625 -4.40625 L 0.140625 -4.40625 L 1.84375 0 L 2.71875 0 Z M 4.421875 -4.40625 "/>
</g>
<g id="glyph-2-20">
<path d="M 0.71875 -0.234375 C 1.046875 0.015625 1.421875 0.21875 2.03125 0.21875 C 3.328125 0.21875 4.53125 -1.15625 4.53125 -3.328125 C 4.53125 -6.109375 3.359375 -6.734375 2.515625 -6.734375 C 1.8125 -6.734375 1.40625 -6.421875 1.0625 -6.0625 C 0.4375 -5.390625 0.421875 -4.734375 0.421875 -4.3125 C 0.421875 -3.03125 1.078125 -1.921875 2.03125 -1.921875 C 2.640625 -1.921875 3.28125 -2.21875 3.703125 -2.75 C 3.59375 -1.15625 2.828125 -0.390625 2.046875 -0.390625 C 1.703125 -0.390625 1.375 -0.46875 1.015625 -0.765625 Z M 3.671875 -4.3125 C 3.6875 -4.25 3.6875 -4.140625 3.6875 -4.078125 C 3.6875 -3.265625 3.1875 -2.53125 2.40625 -2.53125 C 1.9375 -2.53125 1.671875 -2.765625 1.453125 -3.125 C 1.234375 -3.515625 1.234375 -3.875 1.234375 -4.3125 C 1.234375 -4.75 1.234375 -5.15625 1.515625 -5.59375 C 1.71875 -5.875 2 -6.15625 2.515625 -6.15625 C 3.484375 -6.15625 3.65625 -4.796875 3.671875 -4.3125 Z M 3.671875 -4.3125 "/>
</g>
<g id="glyph-2-21">
<path d="M 5.09375 -3.265625 L 5.09375 -3.875 L 1.8125 -3.875 L 1.8125 -6.21875 L 3.1875 -6.21875 C 3.296875 -6.21875 3.421875 -6.21875 3.546875 -6.21875 L 5.359375 -6.21875 L 5.359375 -6.859375 L 0.9375 -6.859375 L 0.9375 0 L 5.5 0 L 5.5 -0.703125 L 4.25 -0.703125 C 4.125 -0.703125 4.015625 -0.6875 3.890625 -0.6875 L 1.8125 -0.6875 L 1.8125 -3.265625 Z M 5.09375 -3.265625 "/>
</g>
<g id="glyph-2-22">
<path d="M 3.171875 -3.515625 C 4.0625 -3.8125 4.390625 -4.46875 4.390625 -4.984375 C 4.390625 -5.921875 3.546875 -6.734375 2.484375 -6.734375 C 1.375 -6.734375 0.5625 -5.90625 0.5625 -4.984375 C 0.5625 -4.46875 0.890625 -3.8125 1.78125 -3.515625 C 1.0625 -3.28125 0.421875 -2.65625 0.421875 -1.78125 C 0.421875 -0.703125 1.328125 0.21875 2.46875 0.21875 C 3.65625 0.21875 4.53125 -0.734375 4.53125 -1.78125 C 4.53125 -2.6875 3.84375 -3.296875 3.171875 -3.515625 Z M 2.484375 -3.8125 C 1.71875 -3.8125 1.25 -4.3125 1.25 -4.984375 C 1.25 -5.671875 1.734375 -6.15625 2.46875 -6.15625 C 3.25 -6.15625 3.703125 -5.640625 3.703125 -4.984375 C 3.703125 -4.28125 3.1875 -3.8125 2.484375 -3.8125 Z M 2.484375 -0.390625 C 1.796875 -0.390625 1.21875 -0.859375 1.21875 -1.796875 C 1.21875 -2.84375 1.9375 -3.21875 2.46875 -3.21875 C 3.046875 -3.21875 3.734375 -2.8125 3.734375 -1.796875 C 3.734375 -0.828125 3.109375 -0.390625 2.484375 -0.390625 Z M 2.484375 -0.390625 "/>
</g>
<g id="glyph-3-0">
<path d="M 4.1875 -2.953125 L 6.515625 -0.390625 C 6.5625 -0.34375 6.609375 -0.3125 6.6875 -0.3125 C 6.84375 -0.3125 6.84375 -0.453125 6.84375 -0.46875 C 6.84375 -0.515625 6.78125 -0.609375 6.75 -0.671875 L 5.078125 -3.59375 L 8.140625 -4.984375 C 8.34375 -5.078125 8.375 -5.09375 8.375 -5.1875 C 8.375 -5.28125 8.3125 -5.34375 8.203125 -5.34375 L 4.75 -4.640625 L 4.375 -7.953125 C 4.34375 -8.1875 4.34375 -8.28125 4.203125 -8.28125 C 4.046875 -8.28125 4.046875 -8.1875 4.015625 -7.9375 L 3.640625 -4.640625 L 0.171875 -5.34375 C 0.0625 -5.34375 0 -5.28125 0 -5.1875 C 0 -5.09375 0.078125 -5.0625 0.21875 -4.984375 L 3.3125 -3.59375 L 1.65625 -0.703125 C 1.546875 -0.5 1.546875 -0.484375 1.546875 -0.46875 C 1.546875 -0.453125 1.546875 -0.3125 1.703125 -0.3125 C 1.734375 -0.3125 1.796875 -0.3125 1.953125 -0.484375 Z M 4.1875 -2.953125 "/>
</g>
</g>
<clipPath id="clip-0">
<path clip-rule="nonzero" d="M 0.511719 41 L 282.25 41 L 282.25 211.289062 L 0.511719 211.289062 Z M 0.511719 41 "/>
</clipPath>
</defs>
<g fill="rgb(0%, 0%, 69.999695%)" fill-opacity="1">
<use xlink:href="#glyph-0-0" x="69.062727" y="30.373157"/>
<use xlink:href="#glyph-0-1" x="90.777635" y="30.373157"/>
<use xlink:href="#glyph-0-2" x="98.492402" y="30.373157"/>
<use xlink:href="#glyph-0-3" x="112.378982" y="30.373157"/>
</g>
<g fill="rgb(0%, 0%, 69.999695%)" fill-opacity="1">
<use xlink:href="#glyph-0-4" x="137.066235" y="30.373157"/>
<use xlink:href="#glyph-0-5" x="152.495769" y="30.373157"/>
<use xlink:href="#glyph-0-6" x="164.839395" y="30.373157"/>
<use xlink:href="#glyph-0-7" x="178.725975" y="30.373157"/>
<use xlink:href="#glyph-0-8" x="190.069768" y="30.373157"/>
<use xlink:href="#glyph-0-9" x="202.741735" y="30.373157"/>
</g>
<path fill-rule="nonzero" fill="rgb(0%, 0%, 69.999695%)" fill-opacity="1" d="M 14.335938 84.535156 L 84.917969 84.535156 L 84.917969 56.300781 L 14.335938 56.300781 Z M 14.335938 84.535156 "/>
<g fill="rgb(100%, 100%, 100%)" fill-opacity="1">
<use xlink:href="#glyph-1-0" x="31.016603" y="75.378136"/>
<use xlink:href="#glyph-1-1" x="43.006009" y="75.378136"/>
<use xlink:href="#glyph-1-2" x="50.820341" y="75.378136"/>
<use xlink:href="#glyph-1-3" x="59.750598" y="75.378136"/>
</g>
<path fill-rule="nonzero" fill="rgb(0%, 0%, 69.999695%)" fill-opacity="1" d="M 84.914062 84.535156 L 197.84375 84.535156 L 197.84375 56.300781 L 84.914062 56.300781 Z M 84.914062 84.535156 "/>
<g fill="rgb(100%, 100%, 100%)" fill-opacity="1">
<use xlink:href="#glyph-1-4" x="120.824379" y="75.318378"/>
<use xlink:href="#glyph-1-1" x="133.392465" y="75.318378"/>
<use xlink:href="#glyph-1-5" x="141.206797" y="75.318378"/>
<use xlink:href="#glyph-1-6" x="154.602183" y="75.318378"/>
</g>
<path fill-rule="nonzero" fill="rgb(0%, 0%, 69.999695%)" fill-opacity="1" d="M 197.84375 84.535156 L 268.425781 84.535156 L 268.425781 56.300781 L 197.84375 56.300781 Z M 197.84375 84.535156 "/>
<g fill="rgb(100%, 100%, 100%)" fill-opacity="1">
<use xlink:href="#glyph-1-7" x="214.129012" y="75.318378"/>
<use xlink:href="#glyph-1-8" x="223.059269" y="75.318378"/>
<use xlink:href="#glyph-1-9" x="230.203475" y="75.318378"/>
<use xlink:href="#glyph-1-10" x="238.240706" y="75.318378"/>
<use xlink:href="#glyph-1-6" x="244.806231" y="75.318378"/>
</g>
<path fill-rule="nonzero" fill="rgb(94.999695%, 94.999695%, 94.999695%)" fill-opacity="1" d="M 14.335938 107.121094 L 84.917969 107.121094 L 84.917969 84.535156 L 14.335938 84.535156 Z M 14.335938 107.121094 "/>
<g fill="rgb(0%, 0%, 0%)" fill-opacity="1">
<use xlink:href="#glyph-2-0" x="47.144375" y="99.078282"/>
</g>
<path fill-rule="nonzero" fill="rgb(94.999695%, 94.999695%, 94.999695%)" fill-opacity="1" d="M 84.914062 107.121094 L 197.84375 107.121094 L 197.84375 84.535156 L 84.914062 84.535156 Z M 84.914062 107.121094 "/>
<g fill="rgb(0%, 0%, 0%)" fill-opacity="1">
<use xlink:href="#glyph-2-1" x="131.292043" y="99.2715"/>
<use xlink:href="#glyph-2-2" x="137.907353" y="99.2715"/>
<use xlink:href="#glyph-2-3" x="140.277831" y="99.2715"/>
<use xlink:href="#glyph-2-4" x="142.648309" y="99.2715"/>
<use xlink:href="#glyph-2-5" x="147.057854" y="99.2715"/>
</g>
<path fill-rule="nonzero" fill="rgb(94.999695%, 94.999695%, 94.999695%)" fill-opacity="1" d="M 197.84375 107.121094 L 268.425781 107.121094 L 268.425781 84.535156 L 197.84375 84.535156 Z M 197.84375 107.121094 "/>
<g fill="rgb(0%, 0%, 0%)" fill-opacity="1">
<use xlink:href="#glyph-2-0" x="223.212275" y="99.078282"/>
<use xlink:href="#glyph-2-6" x="228.17351" y="99.078282"/>
<use xlink:href="#glyph-2-7" x="233.134744" y="99.078282"/>
<use xlink:href="#glyph-2-7" x="238.095979" y="99.078282"/>
</g>
<path fill-rule="nonzero" fill="rgb(100%, 100%, 100%)" fill-opacity="1" d="M 14.335938 129.707031 L 84.917969 129.707031 L 84.917969 107.117188 L 14.335938 107.117188 Z M 14.335938 129.707031 "/>
<g fill="rgb(0%, 0%, 0%)" fill-opacity="1">
<use xlink:href="#glyph-2-8" x="47.144375" y="121.663935"/>
</g>
<path fill-rule="nonzero" fill="rgb(100%, 100%, 100%)" fill-opacity="1" d="M 84.914062 129.707031 L 197.84375 129.707031 L 197.84375 107.117188 L 84.914062 107.117188 Z M 84.914062 129.707031 "/>
<g fill="rgb(0%, 0%, 0%)" fill-opacity="1">
<use xlink:href="#glyph-2-9" x="133.029018" y="121.857154"/>
<use xlink:href="#glyph-2-10" x="139.644328" y="121.857154"/>
<use xlink:href="#glyph-2-11" x="144.605562" y="121.857154"/>
</g>
<path fill-rule="nonzero" fill="rgb(100%, 100%, 100%)" fill-opacity="1" d="M 197.84375 129.707031 L 268.425781 129.707031 L 268.425781 107.117188 L 197.84375 107.117188 Z M 197.84375 129.707031 "/>
<g fill="rgb(0%, 0%, 0%)" fill-opacity="1">
<use xlink:href="#glyph-2-0" x="223.212275" y="121.663935"/>
<use xlink:href="#glyph-2-8" x="228.17351" y="121.663935"/>
<use xlink:href="#glyph-2-7" x="233.134744" y="121.663935"/>
<use xlink:href="#glyph-2-7" x="238.095979" y="121.663935"/>
</g>
<path fill-rule="nonzero" fill="rgb(94.999695%, 94.999695%, 94.999695%)" fill-opacity="1" d="M 14.335938 152.289062 L 84.917969 152.289062 L 84.917969 129.703125 L 14.335938 129.703125 Z M 14.335938 152.289062 "/>
<g fill="rgb(0%, 0%, 0%)" fill-opacity="1">
<use xlink:href="#glyph-2-12" x="47.144375" y="144.250584"/>
</g>
<path fill-rule="nonzero" fill="rgb(94.999695%, 94.999695%, 94.999695%)" fill-opacity="1" d="M 84.914062 152.289062 L 197.84375 152.289062 L 197.84375 129.703125 L 84.914062 129.703125 Z M 84.914062 152.289062 "/>
<g fill="rgb(0%, 0%, 0%)" fill-opacity="1">
<use xlink:href="#glyph-2-13" x="127.129877" y="144.442807"/>
<use xlink:href="#glyph-2-14" x="133.469342" y="144.442807"/>
<use xlink:href="#glyph-2-15" x="138.596282" y="144.442807"/>
</g>
<g fill="rgb(0%, 0%, 0%)" fill-opacity="1">
<use xlink:href="#glyph-2-16" x="143.087191" y="144.442807"/>
<use xlink:href="#glyph-2-2" x="146.477699" y="144.442807"/>
<use xlink:href="#glyph-2-3" x="148.848177" y="144.442807"/>
<use xlink:href="#glyph-2-5" x="151.218655" y="144.442807"/>
</g>
<path fill-rule="nonzero" fill="rgb(94.999695%, 94.999695%, 94.999695%)" fill-opacity="1" d="M 197.84375 152.289062 L 268.425781 152.289062 L 268.425781 129.703125 L 197.84375 129.703125 Z M 197.84375 152.289062 "/>
<g fill="rgb(0%, 0%, 0%)" fill-opacity="1">
<use xlink:href="#glyph-2-0" x="223.212275" y="144.250584"/>
<use xlink:href="#glyph-2-0" x="228.17351" y="144.250584"/>
<use xlink:href="#glyph-2-7" x="233.134744" y="144.250584"/>
<use xlink:href="#glyph-2-7" x="238.095979" y="144.250584"/>
</g>
<path fill-rule="nonzero" fill="rgb(100%, 100%, 100%)" fill-opacity="1" d="M 14.335938 174.875 L 84.917969 174.875 L 84.917969 152.289062 L 14.335938 152.289062 Z M 14.335938 174.875 "/>
<g fill="rgb(0%, 0%, 0%)" fill-opacity="1">
<use xlink:href="#glyph-2-17" x="47.144375" y="166.836237"/>
</g>
<path fill-rule="nonzero" fill="rgb(100%, 100%, 100%)" fill-opacity="1" d="M 84.914062 174.875 L 197.84375 174.875 L 197.84375 152.289062 L 84.914062 152.289062 Z M 84.914062 174.875 "/>
<g fill="rgb(0%, 0%, 0%)" fill-opacity="1">
<use xlink:href="#glyph-2-18" x="130.920546" y="167.02846"/>
<use xlink:href="#glyph-2-15" x="138.086553" y="167.02846"/>
<use xlink:href="#glyph-2-19" x="142.855291" y="167.02846"/>
<use xlink:href="#glyph-2-5" x="147.430542" y="167.02846"/>
</g>
<path fill-rule="nonzero" fill="rgb(100%, 100%, 100%)" fill-opacity="1" d="M 197.84375 174.875 L 268.425781 174.875 L 268.425781 152.289062 L 197.84375 152.289062 Z M 197.84375 174.875 "/>
<g fill="rgb(0%, 0%, 0%)" fill-opacity="1">
<use xlink:href="#glyph-2-20" x="225.693241" y="166.836237"/>
<use xlink:href="#glyph-2-6" x="230.654476" y="166.836237"/>
<use xlink:href="#glyph-2-7" x="235.61571" y="166.836237"/>
</g>
<path fill-rule="nonzero" fill="rgb(94.999695%, 94.999695%, 94.999695%)" fill-opacity="1" d="M 14.335938 197.460938 L 84.917969 197.460938 L 84.917969 174.875 L 14.335938 174.875 Z M 14.335938 197.460938 "/>
<g fill="rgb(0%, 0%, 0%)" fill-opacity="1">
<use xlink:href="#glyph-2-6" x="47.144375" y="189.421891"/>
</g>
<path fill-rule="nonzero" fill="rgb(94.999695%, 94.999695%, 94.999695%)" fill-opacity="1" d="M 84.914062 197.460938 L 197.84375 197.460938 L 197.84375 174.875 L 84.914062 174.875 Z M 84.914062 197.460938 "/>
<g fill="rgb(0%, 0%, 0%)" fill-opacity="1">
<use xlink:href="#glyph-2-21" x="133.924397" y="189.615109"/>
<use xlink:href="#glyph-2-19" x="139.850095" y="189.615109"/>
<use xlink:href="#glyph-2-5" x="144.425345" y="189.615109"/>
</g>
<path fill-rule="nonzero" fill="rgb(94.999695%, 94.999695%, 94.999695%)" fill-opacity="1" d="M 197.84375 197.460938 L 268.425781 197.460938 L 268.425781 174.875 L 197.84375 174.875 Z M 197.84375 197.460938 "/>
<g fill="rgb(0%, 0%, 0%)" fill-opacity="1">
<use xlink:href="#glyph-2-22" x="225.693241" y="189.421891"/>
<use xlink:href="#glyph-2-7" x="230.654476" y="189.421891"/>
<use xlink:href="#glyph-2-7" x="235.61571" y="189.421891"/>
</g>
<g clip-path="url(#clip-0)">
<path fill="none" stroke-width="0.79701" stroke-linecap="butt" stroke-linejoin="miter" stroke="rgb(0%, 0%, 69.999695%)" stroke-opacity="1" stroke-miterlimit="10" d="M -131.08013 11.816189 L -131.08013 -132.97016 C -131.08013 -134.072255 -130.189825 -134.96256 -129.087729 -134.96256 L 129.088969 -134.96256 C 130.187143 -134.96256 131.08137 -134.072255 131.08137 -132.97016 L 131.08137 11.816189 C 131.08137 12.918285 130.187143 13.80859 129.088969 13.80859 L -129.087729 13.80859 C -130.189825 13.80859 -131.08013 12.918285 -131.08013 11.816189 Z M -131.08013 11.816189 " transform="matrix(0.995972, 0, 0, -0.995972, 141.380242, 66.549842)"/>
</g>
<g fill="rgb(100%, 59.999084%, 0%)" fill-opacity="1">
<use xlink:href="#glyph-3-0" x="234.824311" y="25.366407"/>
</g>
<g fill="rgb(100%, 59.999084%, 0%)" fill-opacity="1">
<use xlink:href="#glyph-3-0" x="39.541126" y="25.366407"/>
</g>
</svg>
