<?xml version="1.0" encoding="UTF-8" standalone="no"?>
<!DOCTYPE svg PUBLIC "-//W3C//DTD SVG 1.1//EN"
 "http://www.w3.org/Graphics/SVG/1.1/DTD/svg11.dtd">
<!-- Generated by graphviz version 13.1.0 (20250701.0955)
 -->
<!-- Title: ArrayDiagram Pages: 1 -->
<svg width="612pt" height="153pt"
 viewBox="0.00 0.00 612.00 153.00" xmlns="http://www.w3.org/2000/svg" xmlns:xlink="http://www.w3.org/1999/xlink">
<g id="graph0" class="graph" transform="scale(1 1) rotate(0) translate(4 149)">
<title>ArrayDiagram</title>
<polygon fill="white" stroke="none" points="-4,4 -4,-149 608.38,-149 608.38,4 -4,4"/>
<!-- array -->
<g id="node1" class="node">
<title>array</title>
<polygon fill="lightblue" stroke="none" points="124.25,-116 124.25,-141 164.25,-141 164.25,-116 124.25,-116"/>
<polygon fill="none" stroke="black" points="124.25,-116 124.25,-141 164.25,-141 164.25,-116 124.25,-116"/>
<text xml:space="preserve" text-anchor="start" x="140.88" y="-124.45" font-family="Times,serif" font-weight="bold" font-size="14.00">0</text>
<polygon fill="lightgray" stroke="none" points="164.25,-116 164.25,-141 204.25,-141 204.25,-116 164.25,-116"/>
<polygon fill="none" stroke="black" points="164.25,-116 164.25,-141 204.25,-141 204.25,-116 164.25,-116"/>
<text xml:space="preserve" text-anchor="start" x="180.88" y="-124.45" font-family="Times,serif" font-weight="bold" font-size="14.00">1</text>
<polygon fill="lightgray" stroke="none" points="204.25,-116 204.25,-141 244.25,-141 244.25,-116 204.25,-116"/>
<polygon fill="none" stroke="black" points="204.25,-116 204.25,-141 244.25,-141 244.25,-116 204.25,-116"/>
<text xml:space="preserve" text-anchor="start" x="220.88" y="-124.45" font-family="Times,serif" font-weight="bold" font-size="14.00">2</text>
<polygon fill="lightgray" stroke="none" points="244.25,-116 244.25,-141 284.25,-141 284.25,-116 244.25,-116"/>
<polygon fill="none" stroke="black" points="244.25,-116 244.25,-141 284.25,-141 284.25,-116 244.25,-116"/>
<text xml:space="preserve" text-anchor="start" x="260.88" y="-124.45" font-family="Times,serif" font-weight="bold" font-size="14.00">3</text>
<polygon fill="lightgray" stroke="none" points="284.25,-116 284.25,-141 324.25,-141 324.25,-116 284.25,-116"/>
<polygon fill="none" stroke="black" points="284.25,-116 284.25,-141 324.25,-141 324.25,-116 284.25,-116"/>
<text xml:space="preserve" text-anchor="start" x="300.88" y="-124.45" font-family="Times,serif" font-weight="bold" font-size="14.00">4</text>
<polygon fill="lightgray" stroke="none" points="324.25,-116 324.25,-141 364.25,-141 364.25,-116 324.25,-116"/>
<polygon fill="none" stroke="black" points="324.25,-116 324.25,-141 364.25,-141 364.25,-116 324.25,-116"/>
<text xml:space="preserve" text-anchor="start" x="340.88" y="-124.45" font-family="Times,serif" font-weight="bold" font-size="14.00">5</text>
<polygon fill="lightgray" stroke="none" points="364.25,-116 364.25,-141 404.25,-141 404.25,-116 364.25,-116"/>
<polygon fill="none" stroke="black" points="364.25,-116 364.25,-141 404.25,-141 404.25,-116 364.25,-116"/>
<text xml:space="preserve" text-anchor="start" x="380.88" y="-124.45" font-family="Times,serif" font-weight="bold" font-size="14.00">6</text>
<polygon fill="lightgray" stroke="none" points="404.25,-116 404.25,-141 444.25,-141 444.25,-116 404.25,-116"/>
<polygon fill="none" stroke="black" points="404.25,-116 404.25,-141 444.25,-141 444.25,-116 404.25,-116"/>
<text xml:space="preserve" text-anchor="start" x="420.88" y="-124.45" font-family="Times,serif" font-weight="bold" font-size="14.00">7</text>
<polygon fill="lightgray" stroke="none" points="444.25,-116 444.25,-141 484.25,-141 484.25,-116 444.25,-116"/>
<polygon fill="none" stroke="black" points="444.25,-116 444.25,-141 484.25,-141 484.25,-116 444.25,-116"/>
<text xml:space="preserve" text-anchor="start" x="460.88" y="-124.45" font-family="Times,serif" font-weight="bold" font-size="14.00">8</text>
<polygon fill="lightgray" stroke="none" points="484.25,-116 484.25,-141 524.25,-141 524.25,-116 484.25,-116"/>
<polygon fill="none" stroke="black" points="484.25,-116 484.25,-141 524.25,-141 524.25,-116 484.25,-116"/>
<text xml:space="preserve" text-anchor="start" x="500.88" y="-124.45" font-family="Times,serif" font-weight="bold" font-size="14.00">9</text>
<polygon fill="none" stroke="black" points="124.25,-76 124.25,-116 164.25,-116 164.25,-76 124.25,-76"/>
<text xml:space="preserve" text-anchor="start" x="140.88" y="-90.95" font-family="Times,serif" font-size="14.00">7</text>
<polygon fill="none" stroke="black" points="164.25,-76 164.25,-116 204.25,-116 204.25,-76 164.25,-76"/>
<text xml:space="preserve" text-anchor="start" x="180.88" y="-90.95" font-family="Times,serif" font-size="14.00">1</text>
<polygon fill="none" stroke="black" points="204.25,-76 204.25,-116 244.25,-116 244.25,-76 204.25,-76"/>
<text xml:space="preserve" text-anchor="start" x="220.88" y="-90.95" font-family="Times,serif" font-size="14.00">2</text>
<polygon fill="#f2c84b" stroke="none" points="244.25,-76 244.25,-116 284.25,-116 284.25,-76 244.25,-76"/>
<polygon fill="none" stroke="black" points="244.25,-76 244.25,-116 284.25,-116 284.25,-76 244.25,-76"/>
<text xml:space="preserve" text-anchor="start" x="260.88" y="-90.95" font-family="Times,serif" font-size="14.00">8</text>
<polygon fill="none" stroke="black" points="284.25,-76 284.25,-116 324.25,-116 324.25,-76 284.25,-76"/>
<text xml:space="preserve" text-anchor="start" x="300.88" y="-90.95" font-family="Times,serif" font-size="14.00">5</text>
<polygon fill="none" stroke="black" points="324.25,-76 324.25,-116 364.25,-116 364.25,-76 324.25,-76"/>
<text xml:space="preserve" text-anchor="start" x="340.88" y="-90.95" font-family="Times,serif" font-size="14.00">0</text>
<polygon fill="none" stroke="black" points="364.25,-76 364.25,-116 404.25,-116 404.25,-76 364.25,-76"/>
<text xml:space="preserve" text-anchor="start" x="380.88" y="-90.95" font-family="Times,serif" font-size="14.00">4</text>
<polygon fill="none" stroke="black" points="404.25,-76 404.25,-116 444.25,-116 444.25,-76 404.25,-76"/>
<text xml:space="preserve" text-anchor="start" x="420.88" y="-90.95" font-family="Times,serif" font-size="14.00">3</text>
<polygon fill="none" stroke="black" points="444.25,-76 444.25,-116 484.25,-116 484.25,-76 444.25,-76"/>
<text xml:space="preserve" text-anchor="start" x="460.88" y="-90.95" font-family="Times,serif" font-size="14.00">0</text>
<polygon fill="none" stroke="black" points="484.25,-76 484.25,-116 524.25,-116 524.25,-76 484.25,-76"/>
<text xml:space="preserve" text-anchor="start" x="500.88" y="-90.95" font-family="Times,serif" font-size="14.00">2</text>
</g>
<!-- label_indices -->
<g id="node3" class="node">
<title>label_indices</title>
<text xml:space="preserve" text-anchor="middle" x="577.25" y="-103.45" font-family="Times,serif" font-size="14.00">indices</text>
</g>
<!-- array&#45;&gt;label_indices -->
<g id="edge2" class="edge">
<title>array:i9&#45;&gt;label_indices</title>
<path fill="none" stroke="black" d="M536.33,-123.73C541.11,-124.32 545.87,-124.2 550.34,-123.57"/>
<polygon fill="black" stroke="black" points="537.27,-120.36 526.72,-121.36 535.59,-127.16 537.27,-120.36"/>
</g>
<!-- label_node -->
<g id="node2" class="node">
<title>label_node</title>
<polygon fill="lightgray" stroke="black" points="456.75,-36 341.75,-36 341.75,0 456.75,0 456.75,-36"/>
<text xml:space="preserve" text-anchor="middle" x="399.25" y="-12.95" font-family="Times,serif" font-size="14.00">Array length is 10</text>
</g>
<!-- label_first -->
<g id="node4" class="node">
<title>label_first</title>
<text xml:space="preserve" text-anchor="middle" x="49.25" y="-103.45" font-family="Times,serif" font-size="14.00">First index (&#39;0&#39;)</text>
</g>
<!-- label_first&#45;&gt;array -->
<g id="edge3" class="edge">
<title>label_first&#45;&gt;array:i0</title>
<path fill="none" stroke="black" d="M98.35,-119.1C102.87,-119.73 107.47,-120.24 112.04,-120.57"/>
<polygon fill="black" stroke="black" points="111.61,-124.05 121.74,-120.94 111.88,-117.06 111.61,-124.05"/>
</g>
<!-- label_third -->
<g id="node5" class="node">
<title>label_third</title>
<text xml:space="preserve" text-anchor="middle" x="264.25" y="-12.95" font-family="Times,serif" font-size="14.00">Element at index 3</text>
</g>
<!-- label_third&#45;&gt;array -->
<g id="edge1" class="edge">
<title>label_third&#45;&gt;array:i3</title>
<path fill="none" stroke="black" d="M264.25,-35.66C264.25,-43.67 264.25,-53.66 264.25,-63.55"/>
<polygon fill="black" stroke="black" points="260.75,-63.49 264.25,-73.49 267.75,-63.49 260.75,-63.49"/>
</g>
</g>
</svg>
